<!DOCTYPE svg PUBLIC "-//W3C//DTD SVG 20010904//EN" "http://www.w3.org/TR/2001/REC-SVG-20010904/DTD/svg10.dtd">
<svg version="1.0" xmlns="http://www.w3.org/2000/svg" width="1280px" height="1280px" viewBox="0 0 12800 12800" preserveAspectRatio="xMidYMid meet">
<g id="layer1" fill="#ffffff" stroke="none">
 <path d="M6105 10789 c-601 -42 -1184 -206 -1720 -483 -247 -128 -498 -290 -685 -440 -234 -189 -431 -359 -537 -463 -124 -123 -239 -265 -229 -282 4 -6 -24 -52 -62 -103 -156 -211 -302 -449 -409 -663 -30 -60 -61 -117 -68 -125 -30 -35 -196 -507 -245 -698 -17 -65 -37 -130 -44 -147 -13 -27 -34 -155 -71 -440 -81 -610 -14 -1314 180 -1900 508 -1532 1794 -2666 3360 -2964 469 -89 892 -103 1370 -45 948 115 1841 548 2533 1228 677 664 1112 1502 1261 2426 45 282 55 412 55 710 0 348 -20 548 -91 900 -73 362 -181 674 -358 1035 -608 1243 -1782 2135 -3140 2389 -354 66 -748 89 -1100 65z m613 -2928 c596 -128 1024 -554 1163 -1156 32 -143 37 -395 10 -554 -39 -231 -142 -475 -275 -652 -131 -174 -333 -342 -529 -441 -104 -52 -287 -113 -407 -135 -143 -26 -411 -23 -550 6 -308 65 -559 199 -770 411 -351 352 -505 853 -411 1339 59 300 194 556 410 771 237 236 500 370 836 426 116 19 402 11 523 -15z"/>
 <path d="M6197 7745 c-299 -49 -548 -176 -763 -391 -199 -198 -324 -436 -380 -720 -26 -131 -24 -367 5 -501 77 -367 283 -674 589 -877 233 -155 469 -226 752 -226 283 0 519 71 752 226 306 203 512 510 589 877 29 134 31 370 5 501 -109 556 -523 979 -1071 1098 -121 26 -359 32 -478 13z m398 -635 c314 -99 515 -373 515 -702 0 -329 -188 -598 -492 -704 -100 -36 -285 -45 -391 -20 -206 50 -373 180 -473 370 -58 110 -75 176 -81 316 -7 151 13 247 76 375 93 187 264 323 473 376 100 26 273 20 373 -11z"/>
 </g>
<g id="layer2" fill="#2294d2" stroke="none">
 <path d="M0 6400 l0 -6400 6400 0 6400 0 0 6400 0 6400 -6400 0 -6400 0 0 -6400z m6670 4370 c609 -42 1148 -186 1678 -450 866 -431 1555 -1122 1977 -1985 177 -361 285 -673 358 -1035 71 -352 91 -552 91 -900 0 -298 -10 -428 -55 -710 -177 -1100 -772 -2093 -1656 -2768 -432 -328 -939 -583 -1453 -731 -482 -138 -1009 -195 -1488 -161 -609 44 -1142 187 -1672 451 -1052 523 -1840 1435 -2215 2564 -195 588 -261 1289 -180 1905 33 247 56 396 64 411 5 8 25 76 44 150 56 212 221 683 252 719 7 8 38 65 68 125 107 214 253 452 409 663 38 51 66 97 62 103 -10 17 104 158 220 273 98 96 299 269 526 452 357 288 838 546 1309 704 211 71 321 100 546 145 370 73 756 99 1115 75z"/>
 <path d="M6195 7896 c-237 -40 -436 -118 -630 -249 -123 -83 -323 -285 -404 -406 -238 -359 -315 -782 -216 -1196 65 -274 197 -507 405 -715 221 -222 466 -355 780 -421 139 -29 407 -32 550 -6 120 22 303 83 407 135 197 99 413 281 549 461 133 177 236 421 275 652 27 159 22 411 -10 554 -140 606 -583 1047 -1183 1176 -121 26 -407 34 -523 15z m480 -184 c544 -118 942 -526 1051 -1078 26 -131 24 -367 -5 -501 -77 -365 -273 -660 -570 -858 -232 -154 -468 -225 -751 -225 -283 0 -519 71 -751 225 -297 198 -493 493 -570 858 -29 134 -31 370 -5 501 114 579 544 996 1123 1091 119 19 357 13 478 -13z"/>
 <path d="M6222 7141 c-272 -69 -484 -284 -553 -561 -18 -72 -21 -103 -16 -210 6 -134 22 -202 72 -300 105 -209 283 -352 502 -405 107 -26 290 -17 393 19 198 70 355 214 444 408 45 99 66 197 66 316 0 332 -215 621 -535 722 -100 31 -273 37 -373 11z"/>
 </g>

</svg>