<!DOCTYPE svg PUBLIC "-//W3C//DTD SVG 20010904//EN" "http://www.w3.org/TR/2001/REC-SVG-20010904/DTD/svg10.dtd">
<svg version="1.0" xmlns="http://www.w3.org/2000/svg" width="1000px" height="1000px" viewBox="0 0 10000 10000" preserveAspectRatio="xMidYMid meet">
<g id="layer1" fill="#2088c3" stroke="none">
 <path d="M8575 4240 c-4 -6 -3 -16 3 -22 6 -6 12 -6 17 2 4 6 3 16 -3 22 -6 6 -12 6 -17 -2z"/>
 <path d="M8575 2750 c-4 -6 -3 -16 3 -22 6 -6 12 -6 17 2 4 6 3 16 -3 22 -6 6 -12 6 -17 -2z"/>
 <path d="M7891 2686 c-7 -8 -8 -17 -3 -20 6 -3 15 1 21 8 7 8 8 17 3 20 -6 3 -15 -1 -21 -8z"/>
 </g>
<g id="layer2" fill="#ebdfe3" stroke="none">
 <path d="M2185 7051 c-6 -11 1 -15 18 -12 4 1 3 -8 -3 -18 -6 -12 -6 -22 -1 -26 6 -3 15 3 20 13 8 15 6 23 -8 36 -13 11 -21 14 -26 7z"/>
 <path d="M7620 6771 c-6 -12 -6 -22 -1 -26 6 -3 15 3 21 14 6 12 6 22 1 26 -6 3 -15 -3 -21 -14z"/>
 <path d="M2405 6641 c-2 -4 7 -17 20 -29 23 -23 24 -23 34 -3 8 15 8 22 -1 27 -16 10 -48 13 -53 5z"/>
 <path d="M2706 6262 c-3 -5 3 -17 13 -26 11 -10 22 -13 25 -8 3 5 -3 17 -13 26 -11 10 -22 13 -25 8z"/>
 <path d="M6981 6021 c-19 -16 -30 -31 -24 -34 5 -3 25 6 43 22 19 15 29 30 24 33 -5 4 -25 -6 -43 -21z"/>
 <path d="M6911 5976 c-7 -8 -8 -17 -3 -20 6 -3 15 1 21 8 7 8 8 17 3 20 -6 3 -15 -1 -21 -8z"/>
 <path d="M6735 5850 c-13 -15 -22 -17 -36 -10 -11 6 -20 7 -24 1 -3 -6 3 -15 14 -21 13 -7 22 -7 26 0 4 6 10 8 14 5 5 -2 16 4 25 14 10 11 13 22 8 25 -5 3 -17 -3 -27 -14z"/>
 <path d="M6641 5816 c-18 -21 10 -40 34 -22 18 13 18 14 -2 24 -16 9 -24 8 -32 -2z"/>
 <path d="M6554 5748 c-5 -8 3 -12 20 -9 4 1 14 -3 21 -9 9 -7 15 -7 19 -1 4 5 1 13 -6 17 -18 11 -48 12 -54 2z"/>
 <path d="M3595 5671 c-7 -12 12 -24 25 -16 11 7 4 25 -10 25 -5 0 -11 -4 -15 -9z"/>
 <path d="M6356 5667 c-19 -14 -19 -15 3 -27 29 -15 46 -1 28 23 -11 16 -15 16 -31 4z"/>
 <path d="M3725 5591 c-7 -12 12 -24 25 -16 11 7 4 25 -10 25 -5 0 -11 -4 -15 -9z"/>
 <path d="M3975 5501 c-7 -12 12 -24 25 -16 11 7 4 25 -10 25 -5 0 -11 -4 -15 -9z"/>
 <path d="M4755 4901 c-7 -12 12 -24 25 -16 11 7 4 25 -10 25 -5 0 -11 -4 -15 -9z"/>
 <path d="M4575 4851 c-7 -12 12 -24 25 -16 11 7 4 25 -10 25 -5 0 -11 -4 -15 -9z"/>
 <path d="M5599 4778 c-11 -42 -1 -54 26 -34 18 13 18 14 -3 25 -12 6 -22 10 -23 9z"/>
 <path d="M4345 4760 c-4 -6 -10 -8 -15 -5 -5 3 -11 1 -14 -4 -4 -5 -2 -12 3 -15 5 -4 12 -2 16 4 4 6 10 8 15 5 5 -3 11 -1 14 4 4 5 2 12 -3 15 -5 4 -12 2 -16 -4z"/>
 <path d="M4219 4719 c-6 -31 -6 -40 1 -44 4 -3 13 1 19 9 9 10 8 16 -4 26 -8 7 -15 11 -16 9z"/>
 <path d="M5921 4576 c-7 -8 -8 -17 -3 -20 6 -3 15 1 21 8 7 8 8 17 3 20 -6 3 -15 -1 -21 -8z"/>
 <path d="M5955 4550 c-4 -6 -3 -16 3 -22 6 -6 12 -6 17 2 4 6 3 16 -3 22 -6 6 -12 6 -17 -2z"/>
 <path d="M8421 4536 c-7 -8 -8 -17 -3 -20 6 -3 15 1 21 8 7 8 8 17 3 20 -6 3 -15 -1 -21 -8z"/>
 <path d="M4005 4531 c-7 -12 12 -24 25 -16 11 7 4 25 -10 25 -5 0 -11 -4 -15 -9z"/>
 <path d="M8297 4334 c-3 -4 -2 -16 4 -26 8 -15 14 -17 22 -9 8 8 7 15 -4 26 -8 9 -18 13 -22 9z"/>
 <path d="M3810 4284 c-9 -10 -10 -18 -3 -25 8 -8 14 -5 22 9 13 25 -2 38 -19 16z"/>
 <path d="M7880 4284 c-9 -10 -10 -18 -3 -25 8 -8 14 -5 22 9 13 25 -2 38 -19 16z"/>
 <path d="M6171 4262 c-13 -25 2 -38 19 -16 9 10 10 18 3 25 -8 8 -14 5 -22 -9z"/>
 <path d="M8564 4237 c-8 -22 11 -46 26 -31 7 7 5 17 -4 30 -14 18 -15 18 -22 1z"/>
 <path d="M7695 4211 c-3 -6 1 -24 10 -41 13 -25 19 -29 30 -20 10 8 12 17 5 29 -14 27 -37 44 -45 32z"/>
 <path d="M7737 4124 c-3 -4 -2 -16 4 -26 8 -15 14 -17 22 -9 8 8 7 15 -4 26 -8 9 -18 13 -22 9z"/>
 <path d="M8390 4111 c-7 -14 -7 -22 1 -27 14 -8 43 21 35 35 -11 17 -24 13 -36 -8z"/>
 <path d="M7366 4013 c-11 -11 -6 -22 15 -34 32 -17 46 4 16 24 -14 9 -27 13 -31 10z"/>
 <path d="M7807 3993 c-4 -6 0 -18 7 -28 8 -11 16 -14 19 -8 4 6 0 18 -7 28 -8 11 -16 14 -19 8z"/>
 <path d="M7418 3923 c-2 -4 -3 -19 -3 -33 0 -37 29 -33 30 4 0 27 -19 47 -27 29z"/>
 <path d="M8656 3921 c-4 -5 -2 -13 4 -16 8 -5 8 -11 0 -20 -7 -8 -9 -19 -5 -25 9 -14 28 -1 21 15 -2 7 0 17 5 22 6 6 5 14 -5 22 -9 7 -16 8 -20 2z"/>
 <path d="M8675 3850 c-4 -6 -3 -16 3 -22 6 -6 12 -6 17 2 4 6 3 16 -3 22 -6 6 -12 6 -17 -2z"/>
 <path d="M8065 3810 c-10 -17 12 -37 25 -24 8 8 6 15 -4 23 -10 9 -16 9 -21 1z"/>
 <path d="M7235 3801 c-3 -6 3 -15 14 -21 21 -11 37 2 26 20 -8 13 -32 13 -40 1z"/>
 <path d="M8055 3761 c-2 -5 2 -16 9 -26 13 -18 14 -18 25 3 6 12 10 22 9 23 -23 6 -39 6 -43 0z"/>
 <path d="M7456 3722 c-3 -6 1 -15 8 -21 8 -7 17 -8 20 -3 3 6 -1 15 -8 21 -8 7 -17 8 -20 3z"/>
 <path d="M8695 3700 c-4 -6 -3 -16 3 -22 6 -6 12 -6 17 2 4 6 3 16 -3 22 -6 6 -12 6 -17 -2z"/>
 <path d="M8475 3690 c-4 -6 1 -20 11 -31 13 -14 20 -16 30 -8 8 6 11 15 8 21 -3 5 -12 4 -20 -3 -12 -10 -13 -9 -9 4 7 18 -11 32 -20 17z"/>
 <path d="M7496 3612 c-3 -6 1 -15 8 -21 8 -7 17 -8 20 -3 3 6 -1 15 -8 21 -8 7 -17 8 -20 3z"/>
 <path d="M8094 3576 c-4 -10 -2 -22 4 -28 8 -8 13 -7 18 6 4 10 2 22 -4 28 -8 8 -13 7 -18 -6z"/>
 <path d="M7874 3566 c-4 -10 -2 -22 4 -28 8 -8 13 -7 18 6 4 10 2 22 -4 28 -8 8 -13 7 -18 -6z"/>
 <path d="M8705 3570 c-4 -6 -3 -16 3 -22 6 -6 12 -6 17 2 4 6 3 16 -3 22 -6 6 -12 6 -17 -2z"/>
 <path d="M7874 3426 c-4 -10 -2 -22 4 -28 8 -8 13 -7 18 6 4 10 2 22 -4 28 -8 8 -13 7 -18 -6z"/>
 <path d="M8095 3420 c-4 -6 -3 -16 3 -22 6 -6 12 -6 17 2 4 6 3 16 -3 22 -6 6 -12 6 -17 -2z"/>
 <path d="M8705 3420 c-4 -6 -3 -16 3 -22 6 -6 12 -6 17 2 4 6 3 16 -3 22 -6 6 -12 6 -17 -2z"/>
 <path d="M7501 3376 c-7 -8 -8 -17 -3 -20 6 -3 15 1 21 8 7 8 8 17 3 20 -6 3 -15 -1 -21 -8z"/>
 <path d="M8485 3310 c-13 -15 -15 -24 -8 -31 18 -18 37 0 21 19 -8 10 -9 13 -1 9 6 -4 14 -3 17 2 12 19 -12 20 -29 1z"/>
 <path d="M8695 3290 c-4 -6 -3 -16 3 -22 6 -6 12 -6 17 2 4 6 3 16 -3 22 -6 6 -12 6 -17 -2z"/>
 <path d="M8065 3241 c-10 -17 15 -45 29 -31 7 7 5 15 -6 26 -11 11 -18 13 -23 5z"/>
 <path d="M7835 3160 c-10 -17 12 -37 25 -24 8 8 6 15 -4 23 -10 9 -16 9 -21 1z"/>
 <path d="M7415 3100 c-11 -17 5 -32 21 -19 7 6 11 15 8 20 -7 12 -21 11 -29 -1z"/>
 <path d="M8661 3066 c-7 -8 -8 -17 -3 -20 6 -3 15 1 21 8 7 8 8 17 3 20 -6 3 -15 -1 -21 -8z"/>
 <path d="M7374 2989 c-10 -17 13 -36 27 -22 12 12 4 33 -11 33 -5 0 -12 -5 -16 -11z"/>
 <path d="M8615 2921 c-7 -12 12 -24 25 -16 11 7 4 25 -10 25 -5 0 -11 -4 -15 -9z"/>
 <path d="M8390 2900 c-18 -33 16 -80 36 -49 3 6 2 15 -4 21 -6 6 -8 16 -6 23 9 22 -14 27 -26 5z"/>
 <path d="M7755 2901 c-7 -12 12 -24 25 -16 11 7 4 25 -10 25 -5 0 -11 -4 -15 -9z"/>
 <path d="M7325 2891 c-7 -12 12 -24 25 -16 11 7 4 25 -10 25 -5 0 -11 -4 -15 -9z"/>
 <path d="M7971 2876 c-7 -8 -8 -17 -3 -20 6 -3 15 1 21 8 7 8 8 17 3 20 -6 3 -15 -1 -21 -8z"/>
 <path d="M8609 2887 c-1 -4 -2 -10 -3 -14 -1 -5 -5 -13 -9 -20 -8 -13 8 -27 21 -19 10 6 9 42 -1 52 -4 4 -8 4 -8 1z"/>
 <path d="M7715 2821 c-7 -12 12 -24 25 -16 11 7 4 25 -10 25 -5 0 -11 -4 -15 -9z"/>
 <path d="M7925 2780 c-4 -6 -3 -16 3 -22 6 -6 12 -6 17 2 4 6 3 16 -3 22 -6 6 -12 6 -17 -2z"/>
 <path d="M8567 2784 c-10 -11 -9 -52 2 -59 17 -10 32 30 18 49 -7 9 -16 14 -20 10z"/>
 <path d="M8301 2662 c-13 -25 2 -38 19 -16 9 10 10 18 3 25 -8 8 -14 5 -22 -9z"/>
 <path d="M3897 2553 c-4 -6 0 -18 7 -28 8 -11 16 -14 19 -8 4 6 0 18 -7 28 -8 11 -16 14 -19 8z"/>
 <path d="M8241 2542 c-13 -25 2 -38 19 -16 9 10 10 18 3 25 -8 8 -14 5 -22 -9z"/>
 <path d="M3925 2482 c-9 -10 6 -21 21 -15 9 3 14 0 12 -7 -3 -14 29 -23 37 -10 11 17 -54 48 -70 32z"/>
 <path d="M5991 2406 c-13 -13 -18 -26 -13 -30 5 -3 19 5 31 18 13 13 18 26 13 30 -5 3 -19 -5 -31 -18z"/>
 <path d="M4051 2386 c-7 -8 -8 -17 -3 -20 6 -3 15 1 21 8 7 8 8 17 3 20 -6 3 -15 -1 -21 -8z"/>
 <path d="M4301 2196 c-7 -8 -8 -17 -3 -20 6 -3 15 1 21 8 7 8 8 17 3 20 -6 3 -15 -1 -21 -8z"/>
 <path d="M5195 2031 c-7 -12 12 -24 25 -16 11 7 4 25 -10 25 -5 0 -11 -4 -15 -9z"/>
 </g>
<g id="layer3" fill="#f9f0e0" stroke="none">
 <path d="M2036 7681 c-4 -6 -6 -27 -5 -48 1 -21 1 -42 -1 -48 -6 -23 1 -27 19 -11 14 12 17 27 15 58 -4 44 -17 67 -28 49z"/>
 <path d="M7934 7675 c-4 -9 -2 -32 3 -50 8 -26 7 -36 -4 -48 -20 -20 -8 -40 16 -27 24 12 28 111 6 130 -12 10 -16 9 -21 -5z"/>
 <path d="M2041 7538 c-12 -33 -4 -40 25 -22 29 20 29 20 4 34 -17 9 -22 7 -29 -12z"/>
 <path d="M2065 7400 c-4 -6 -3 -16 3 -22 6 -6 12 -6 17 2 4 6 3 16 -3 22 -6 6 -12 6 -17 -2z"/>
 <path d="M7872 7379 c-10 -25 -1 -64 13 -64 5 0 12 13 17 30 5 21 3 34 -7 44 -12 13 -15 11 -23 -10z"/>
 <path d="M7854 7306 c-8 -21 3 -49 16 -41 5 3 10 15 10 25 0 25 -18 36 -26 16z"/>
 <path d="M2123 7274 c-3 -9 -1 -25 6 -37 6 -12 12 -37 13 -55 1 -19 6 -36 10 -38 12 -8 29 34 23 58 -3 13 -7 36 -8 52 -2 32 -34 46 -44 20z"/>
 <path d="M7835 7238 c-7 -19 0 -53 10 -51 13 4 17 51 5 58 -6 3 -12 0 -15 -7z"/>
 <path d="M2187 7123 c-3 -5 -1 -19 4 -32 9 -23 10 -23 29 -6 18 17 19 30 2 30 -4 0 -12 4 -19 8 -6 4 -14 4 -16 0z"/>
 <path d="M7790 7111 c-6 -12 -6 -22 -1 -26 6 -3 15 3 21 14 6 12 6 22 1 26 -6 3 -15 -3 -21 -14z"/>
 <path d="M2206 7041 c-4 -5 -2 -12 2 -15 5 -3 7 -16 5 -30 -6 -27 13 -69 28 -61 14 9 11 61 -6 75 -8 7 -13 16 -10 20 3 5 1 11 -4 14 -5 4 -12 2 -15 -3z"/>
 <path d="M7755 7010 c-4 -6 -3 -16 3 -22 6 -6 12 -6 17 2 4 6 3 16 -3 22 -6 6 -12 6 -17 -2z"/>
 <path d="M7686 6891 c-18 -19 -21 -56 -7 -66 11 -6 34 30 36 58 2 26 -10 29 -29 8z"/>
 <path d="M2298 6884 c-7 -11 -4 -52 4 -60 4 -3 11 3 17 14 7 14 7 24 -3 37 -7 10 -15 14 -18 9z"/>
 <path d="M7625 6790 c-4 -6 -10 -8 -15 -5 -5 3 -11 1 -14 -4 -4 -5 -2 -12 3 -15 5 -4 12 -2 16 4 4 6 10 8 15 5 5 -3 11 -1 14 4 4 5 2 12 -3 15 -5 4 -12 2 -16 -4z"/>
 <path d="M2375 6720 c-10 -16 16 -43 28 -31 11 11 2 41 -12 41 -5 0 -13 -5 -16 -10z"/>
 <path d="M7596 6722 c-3 -6 1 -15 8 -21 8 -7 17 -8 20 -3 3 6 -1 15 -8 21 -8 7 -17 8 -20 3z"/>
 <path d="M7554 6656 c-4 -10 -2 -22 4 -28 8 -8 13 -7 18 6 4 10 2 22 -4 28 -8 8 -13 7 -18 -6z"/>
 <path d="M2451 6632 c-7 -13 -7 -22 1 -30 7 -7 9 -12 5 -12 -4 0 -3 -9 3 -20 14 -26 28 -18 24 12 -10 67 -17 79 -33 50z"/>
 <path d="M7515 6590 c-4 -6 -3 -16 3 -22 6 -6 12 -6 17 2 4 6 3 16 -3 22 -6 6 -12 6 -17 -2z"/>
 <path d="M2494 6539 c-3 -6 3 -20 14 -32 19 -19 22 -19 28 -4 11 29 -26 61 -42 36z"/>
 <path d="M7441 6512 c-6 -10 -7 -22 -3 -26 3 -4 -1 -4 -10 -1 -19 7 -34 -10 -17 -21 17 -10 66 43 52 57 -8 8 -14 6 -22 -9z"/>
 <path d="M2540 6481 c-7 -13 -7 -22 0 -26 13 -8 30 3 30 20 0 23 -18 27 -30 6z"/>
 <path d="M2595 6399 c-5 -7 2 -19 16 -30 22 -17 25 -17 37 -2 7 10 11 22 9 28 -5 15 -54 18 -62 4z"/>
 <path d="M2675 6322 c-3 -3 0 -11 6 -18 8 -10 16 -11 31 -3 11 6 17 13 14 17 -8 7 -44 10 -51 4z"/>
 <path d="M2776 6237 c-16 -12 -16 -14 3 -31 12 -11 21 -16 21 -11 0 4 7 2 15 -5 12 -10 16 -9 21 3 9 25 -5 40 -24 25 -13 -11 -15 -10 -9 4 8 23 -6 30 -27 15z"/>
 <path d="M2836 6161 c-3 -4 2 -18 10 -30 13 -18 19 -20 30 -10 8 7 14 19 12 27 -3 16 -44 27 -52 13z"/>
 <path d="M7036 6151 c-8 -12 31 -44 44 -36 15 9 1 27 -17 21 -8 -3 -11 -2 -8 3 3 5 1 12 -4 15 -5 4 -12 2 -15 -3z"/>
 <path d="M2925 6080 c-4 -6 9 -17 27 -25 18 -8 29 -14 24 -15 -16 0 16 -30 50 -46 36 -17 68 -10 43 10 -8 6 -19 20 -25 31 -7 11 -21 19 -32 18 -13 -2 -19 3 -18 13 1 19 -59 30 -69 14z"/>
 <path d="M6996 6081 c-3 -5 1 -14 9 -21 21 -17 8 -32 -17 -19 -21 12 -45 -1 -35 -18 5 -8 40 -10 57 -3 3 1 8 2 12 1 15 -2 28 37 15 46 -24 19 -36 23 -41 14z"/>
 <path d="M6883 5997 c-8 -10 -10 -37 -4 -63 2 -9 31 17 42 37 12 23 -23 47 -38 26z"/>
 <path d="M3125 5921 c-7 -12 12 -24 25 -16 11 7 4 25 -10 25 -5 0 -11 -4 -15 -9z"/>
 <path d="M3189 5904 c-9 -30 5 -54 32 -54 40 0 31 42 -11 53 -11 3 -21 3 -21 1z"/>
 <path d="M6787 5893 c-27 -14 -29 -33 -3 -33 16 0 50 37 39 42 -4 3 -20 -2 -36 -9z"/>
 <path d="M3280 5830 c-12 -22 -11 -22 25 -22 14 0 28 0 32 1 8 1 -28 41 -38 41 -5 0 -13 -9 -19 -20z"/>
 <path d="M6633 5837 c-9 -14 28 -39 41 -28 10 9 17 11 33 11 4 0 2 5 -4 11 -14 14 -62 19 -70 6z"/>
 <path d="M3434 5748 c-7 -11 35 -50 47 -43 5 4 7 10 4 15 -3 4 2 11 11 14 9 4 14 9 10 13 -8 9 -67 10 -72 1z"/>
 <path d="M3496 5702 c-3 -6 1 -15 8 -21 8 -7 17 -8 20 -3 3 6 -1 15 -8 21 -8 7 -17 8 -20 3z"/>
 <path d="M3645 5681 c-3 -6 -10 -9 -15 -6 -5 3 -11 1 -15 -4 -7 -12 31 -34 44 -26 10 5 9 30 -1 40 -3 4 -9 1 -13 -4z"/>
 <path d="M6326 5677 c-14 -10 -15 -15 -4 -29 12 -16 14 -16 37 1 24 18 24 19 4 29 -15 8 -25 8 -37 -1z"/>
 <path d="M3745 5600 c-8 -12 20 -24 35 -15 6 4 9 3 8 -2 -2 -4 2 -10 7 -11 6 -2 15 -8 22 -14 7 -5 17 -7 23 -3 14 9 1 28 -15 21 -7 -2 -21 4 -31 15 -19 21 -39 25 -49 9z"/>
 <path d="M6129 5594 c-5 -7 -24 -16 -40 -19 -32 -7 -56 -39 -39 -50 6 -4 19 -3 28 1 9 4 26 8 37 8 12 1 19 7 17 15 -2 9 4 12 17 8 22 -5 57 25 47 41 -8 14 -54 11 -67 -4z"/>
 <path d="M6215 5600 c-3 -5 -2 -10 2 -12 13 -7 33 -3 36 6 3 12 -31 17 -38 6z"/>
 <path d="M3965 5520 c-8 -12 20 -24 35 -15 6 3 8 11 5 16 -8 12 -32 12 -40 -1z"/>
 <path d="M4030 5530 c-7 -31 -7 -41 2 -46 19 -12 29 11 13 32 -8 10 -15 17 -15 14z"/>
 <path d="M5919 5526 c-8 -10 -4 -39 6 -42 16 -7 67 25 60 36 -4 7 -61 11 -66 6z"/>
 <path d="M4068 5513 c-7 -14 -3 -33 6 -33 12 -1 17 28 6 35 -5 3 -10 2 -12 -2z"/>
 <path d="M4125 5461 c-7 -12 12 -24 25 -16 11 7 4 25 -10 25 -5 0 -11 -4 -15 -9z"/>
 <path d="M5666 5441 c-9 -15 23 -36 35 -24 8 8 5 14 -9 22 -12 6 -23 7 -26 2z"/>
 <path d="M5555 5421 c-7 -12 12 -24 25 -16 11 7 4 25 -10 25 -5 0 -11 -4 -15 -9z"/>
 <path d="M4916 4911 c-8 -12 31 -44 44 -36 8 5 6 13 -6 26 -19 21 -30 24 -38 10z"/>
 <path d="M5036 4913 c-3 -3 -1 -14 5 -24 10 -20 34 -25 43 -10 7 10 -39 43 -48 34z"/>
 <path d="M4875 4890 c-8 -12 20 -24 35 -15 6 3 8 11 5 16 -8 12 -32 12 -40 -1z"/>
 <path d="M4602 4857 c-9 -10 -8 -18 2 -32 16 -22 37 -11 32 17 -4 27 -19 33 -34 15z"/>
 <path d="M5275 4860 c-11 -18 13 -36 31 -25 9 6 16 15 17 20 3 14 -40 18 -48 5z"/>
 <path d="M5405 4831 c-7 -12 54 -43 67 -35 13 8 -21 44 -43 44 -10 0 -20 -4 -24 -9z"/>
 <path d="M4375 4757 c-11 -5 -27 -13 -35 -17 -8 -4 -13 -11 -10 -16 7 -13 52 -5 70 12 19 19 1 35 -25 21z"/>
 <path d="M5619 4744 c-6 -8 -9 -15 -5 -15 12 -3 21 -6 39 -13 22 -10 53 12 38 27 -16 16 -59 17 -72 1z"/>
 <path d="M4231 4687 c-6 -8 -8 -17 -5 -20 10 -9 45 13 39 24 -9 13 -21 11 -34 -4z"/>
 <path d="M5759 4688 c-1 -5 -2 -11 -3 -15 -1 -5 -5 -14 -9 -21 -12 -18 14 -25 47 -12 25 9 28 36 3 27 -7 -2 -17 3 -24 12 -7 9 -13 13 -14 9z"/>
 <path d="M5885 4580 c-3 -5 4 -14 16 -20 11 -7 18 -14 15 -17 -10 -10 15 -45 29 -39 7 2 15 -4 18 -16 4 -13 11 -19 21 -15 8 3 17 -1 20 -9 3 -9 11 -12 17 -9 5 4 19 -1 29 -10 10 -9 21 -12 24 -7 3 5 -3 17 -14 27 -11 10 -20 15 -20 11 0 -4 -16 9 -36 28 -20 20 -41 33 -45 30 -5 -3 -9 2 -9 10 0 19 -56 50 -65 36z"/>
 <path d="M4075 4570 c-3 -5 -3 -10 1 -10 4 0 0 -8 -8 -17 -11 -13 -13 -25 -7 -41 12 -30 28 -19 24 16 -1 15 2 32 7 39 5 7 5 14 -1 17 -5 4 -12 2 -16 -4z"/>
 <path d="M4001 4496 c-9 -10 -9 -16 -1 -21 13 -8 42 14 34 26 -8 13 -20 11 -33 -5z"/>
 <path d="M3935 4480 c-4 -6 -3 -16 3 -22 6 -6 12 -6 17 2 4 6 3 16 -3 22 -6 6 -12 6 -17 -2z"/>
 <path d="M3903 4408 c-12 -16 -11 -57 2 -60 15 -4 31 50 19 62 -8 8 -14 7 -21 -2z"/>
 <path d="M6080 4400 c-11 -21 -5 -44 9 -35 13 7 20 44 11 50 -5 3 -14 -4 -20 -15z"/>
 <path d="M3831 4324 c-28 -36 -17 -49 19 -22 23 16 27 25 19 35 -15 17 -14 17 -38 -13z"/>
 <path d="M6156 4261 c-4 -5 -2 -12 4 -16 5 -3 10 -3 10 1 0 3 6 1 14 -5 10 -8 16 -9 21 -1 3 5 4 11 1 11 -3 1 -9 2 -13 3 -5 1 -13 5 -20 9 -6 4 -14 3 -17 -2z"/>
 <path d="M3788 4253 c-8 -14 -3 -38 7 -41 12 -3 16 36 4 43 -4 3 -9 2 -11 -2z"/>
 <path d="M3736 4171 c-9 -10 -14 -26 -11 -35 17 -55 15 -53 31 -32 15 22 19 72 5 80 -4 3 -16 -3 -25 -13z"/>
 <path d="M6235 4180 c-11 -17 5 -32 21 -19 7 6 11 15 8 20 -7 12 -21 11 -29 -1z"/>
 <path d="M6262 4137 c-23 -25 -30 -40 -21 -47 3 -3 18 9 33 27 30 36 20 54 -12 20z"/>
 <path d="M6311 4028 c-10 -26 1 -43 23 -35 9 4 12 13 9 27 -8 31 -22 34 -32 8z"/>
 <path d="M3617 3893 c-11 -19 -1 -58 16 -61 25 -5 40 39 19 56 -18 14 -29 15 -35 5z"/>
 <path d="M6405 3780 c-4 -6 -3 -16 3 -22 6 -6 12 -6 17 2 4 6 3 16 -3 22 -6 6 -12 6 -17 -2z"/>
 <path d="M3579 3726 c-13 -28 -5 -60 14 -53 13 4 18 65 5 73 -4 3 -13 -6 -19 -20z"/>
 <path d="M6395 3728 c-11 -27 -1 -53 19 -53 27 0 29 16 6 45 -16 22 -20 23 -25 8z"/>
 <path d="M3554 3546 c-4 -10 -2 -22 4 -28 8 -8 13 -7 18 6 4 10 2 22 -4 28 -8 8 -13 7 -18 -6z"/>
 <path d="M3556 3403 c-13 -13 -5 -69 14 -93 17 -23 19 -23 26 -7 4 10 2 23 -5 30 -6 6 -11 23 -11 38 0 28 -12 44 -24 32z"/>
 <path d="M6428 3354 c-9 -16 -3 -94 7 -92 6 2 10 12 11 23 0 11 3 25 7 31 3 6 0 19 -7 29 -7 10 -15 14 -18 9z"/>
 <path d="M6419 3236 c-3 -13 -6 -22 -14 -39 -4 -11 -3 -23 3 -29 8 -8 13 -7 18 6 4 9 4 20 0 23 -3 3 -1 12 5 19 7 8 7 14 -1 19 -5 3 -11 4 -11 1z"/>
 <path d="M3635 3000 c-9 -14 4 -32 17 -24 6 4 8 2 5 -3 -4 -6 0 -16 7 -22 8 -7 16 -8 18 -4 8 15 3 48 -7 48 -5 0 -15 4 -22 8 -6 4 -14 3 -18 -3z"/>
 <path d="M6329 2984 c-14 -34 -19 -103 -8 -110 11 -6 31 33 28 54 -2 9 1 28 5 41 13 37 -11 51 -25 15z"/>
 <path d="M3675 2881 c-7 -12 12 -24 25 -16 11 7 4 25 -10 25 -5 0 -11 -4 -15 -9z"/>
 <path d="M6270 2820 c-11 -21 -6 -40 10 -40 5 0 14 9 19 19 8 14 7 22 -4 31 -11 9 -16 7 -25 -10z"/>
 <path d="M3734 2816 c-4 -10 -2 -22 4 -28 8 -8 13 -7 18 6 4 10 2 22 -4 28 -8 8 -13 7 -18 -6z"/>
 <path d="M6240 2761 c-14 -26 -4 -47 15 -31 13 11 14 34 3 46 -4 3 -11 -4 -18 -15z"/>
 <path d="M3745 2760 c-4 -6 -3 -16 3 -22 6 -6 12 -6 17 2 4 6 3 16 -3 22 -6 6 -12 6 -17 -2z"/>
 <path d="M3776 2722 c-8 -14 1 -47 12 -45 6 2 9 -3 6 -11 -3 -7 7 -21 21 -30 22 -14 26 -15 31 -2 8 20 -14 58 -28 50 -7 -4 -8 -2 -4 5 4 6 2 18 -4 26 -14 17 -26 19 -34 7z"/>
 <path d="M6166 2721 c-7 -10 0 -15 17 -12 4 0 6 -5 5 -11 -2 -7 3 -12 10 -10 8 1 11 -2 7 -8 -5 -8 -13 -6 -26 6 -10 9 -19 15 -20 13 -10 -53 5 -85 26 -56 7 9 14 14 17 12 3 -3 10 1 16 8 9 11 5 20 -17 41 -18 17 -31 24 -35 17z"/>
 <path d="M3885 2561 c-2 -5 2 -16 9 -26 13 -18 14 -18 25 3 6 12 10 22 9 23 -23 6 -39 6 -43 0z"/>
 <path d="M6106 2562 c-3 -6 1 -15 8 -21 8 -7 17 -8 20 -3 3 6 -1 15 -8 21 -8 7 -17 8 -20 3z"/>
 <path d="M3927 2523 c-11 -11 -8 -27 13 -53 l19 -25 9 25 c15 39 -16 79 -41 53z"/>
 <path d="M6003 2478 c-9 -17 -11 -48 -3 -53 4 -2 20 9 35 25 16 17 27 30 24 31 -2 0 -14 2 -26 5 -12 2 -25 -2 -30 -8z"/>
 <path d="M5955 2400 c-4 -6 -14 -9 -23 -8 -11 2 -17 -5 -18 -24 -2 -15 1 -30 6 -33 12 -7 32 30 22 40 -4 5 -2 5 4 2 15 -8 39 19 25 27 -5 4 -13 2 -16 -4z"/>
 <path d="M4060 2374 c-9 -10 -10 -18 -3 -25 8 -8 14 -5 22 9 13 25 -2 38 -19 16z"/>
 <path d="M4105 2340 c-4 -6 -3 -16 3 -22 6 -6 12 -6 17 2 4 6 3 16 -3 22 -6 6 -12 6 -17 -2z"/>
 <path d="M5841 2316 c-7 -8 -8 -17 -3 -20 6 -3 15 1 21 8 7 8 8 17 3 20 -6 3 -15 -1 -21 -8z"/>
 <path d="M4145 2306 c-11 -8 -14 -16 -8 -19 6 -4 18 0 28 7 11 8 14 16 8 19 -6 4 -18 0 -28 -7z"/>
 <path d="M4240 2235 c-10 -12 -5 -17 26 -30 26 -11 41 -12 48 -5 8 8 4 12 -11 16 -12 3 -24 12 -27 20 -7 18 -20 18 -36 -1z"/>
 <path d="M4325 2240 c-4 -6 -3 -16 3 -22 6 -6 12 -6 17 2 4 6 3 16 -3 22 -6 6 -12 6 -17 -2z"/>
 <path d="M5650 2205 c-12 -14 -6 -35 10 -35 5 0 21 5 37 11 27 10 27 11 9 25 -25 18 -40 18 -56 -1z"/>
 <path d="M5528 2160 c-19 -12 -17 -47 3 -41 8 2 28 5 46 7 46 3 60 14 38 31 -22 15 -63 17 -87 3z"/>
 <path d="M4416 2151 c-6 -10 39 -51 56 -51 14 0 22 30 10 42 -7 7 -17 6 -32 -2 -13 -7 -20 -8 -16 -2 3 6 2 13 -3 16 -5 4 -12 2 -15 -3z"/>
 <path d="M4611 2076 c-18 -22 -2 -27 48 -17 6 2 -21 31 -29 31 -4 0 -13 -6 -19 -14z"/>
 <path d="M5395 2080 c-8 -13 20 -24 41 -16 20 8 9 26 -16 26 -10 0 -22 -5 -25 -10z"/>
 <path d="M4707 2073 c-9 -8 12 -45 23 -38 5 3 11 1 15 -5 8 -14 52 -13 61 2 9 15 -25 40 -51 36 -11 -1 -25 1 -31 5 -6 3 -14 4 -17 0z"/>
 <path d="M5225 2071 c-3 -5 -2 -12 3 -15 12 -7 62 -1 65 9 3 11 -61 17 -68 6z"/>
 <path d="M4912 2041 c-18 -4 -34 -10 -35 -16 -3 -13 73 -19 85 -7 15 15 -14 28 -50 23z"/>
 </g>
<g id="layer4" fill="#defcfe" stroke="none">
 <path d="M2025 8053 c-32 -8 -45 -23 -45 -54 0 -39 16 -45 32 -12 l13 28 2974 3 c2175 1 2978 -1 2987 -9 16 -13 30 11 20 36 -5 13 -345 15 -2983 14 -1638 -1 -2987 -4 -2998 -6z"/>
 <path d="M1983 7895 c-10 -27 5 -210 27 -335 89 -498 327 -947 700 -1321 246 -246 502 -431 805 -579 99 -48 207 -98 240 -110 33 -13 69 -26 80 -31 11 -4 58 -20 105 -35 47 -14 105 -33 129 -41 24 -7 46 -11 49 -8 3 2 10 1 16 -4 18 -14 168 -46 311 -66 22 -4 47 -8 57 -11 9 -3 19 0 23 6 8 13 -43 33 -67 27 -10 -3 -21 -1 -24 4 -3 5 -15 9 -27 9 -12 0 -58 10 -102 21 -44 11 -100 22 -125 23 -48 3 -94 19 -104 34 -5 8 -62 21 -101 23 -5 0 -24 9 -41 20 -17 10 -42 19 -56 19 -13 0 -28 4 -33 9 -6 5 -44 20 -85 35 -68 23 -75 28 -72 50 4 33 -10 39 -47 20 -31 -15 -34 -15 -54 4 -12 11 -39 23 -59 27 -20 4 -39 13 -42 21 -3 8 -14 14 -25 14 -11 0 -23 5 -26 10 -4 6 -26 20 -51 31 -24 12 -44 25 -44 30 0 5 -15 16 -32 24 -61 29 -93 48 -121 72 -16 12 -35 23 -42 23 -8 0 -23 14 -35 30 -12 17 -28 30 -37 30 -16 0 -44 20 -115 82 -24 21 -49 38 -55 38 -7 0 -13 4 -13 9 0 4 -36 40 -80 79 -80 71 -214 217 -280 306 -19 26 -45 60 -57 75 -13 16 -23 36 -23 45 0 9 -7 19 -16 23 -8 3 -20 15 -25 27 -5 11 -18 35 -29 51 -11 17 -24 39 -29 50 -6 11 -19 34 -30 50 -12 17 -21 38 -21 47 0 10 -11 25 -25 34 -14 9 -25 22 -25 30 0 7 -12 35 -26 61 -14 26 -27 60 -29 76 -1 15 -10 36 -20 47 -9 10 -18 33 -20 50 -1 17 -5 33 -9 37 -3 3 -6 13 -6 21 0 8 -11 38 -24 66 -32 70 -46 116 -46 157 0 19 -5 40 -10 45 -6 6 -13 37 -16 70 -3 32 -10 78 -15 102 -5 23 -12 90 -16 148 -6 101 -16 134 -30 99z"/>
 <path d="M7985 7818 c-9 -22 -2 -68 10 -71 14 -3 19 63 6 76 -7 7 -12 5 -16 -5z"/>
 <path d="M7966 7728 c-3 -7 -7 -53 -9 -103 -3 -53 -14 -113 -25 -145 -11 -30 -23 -80 -27 -110 -3 -31 -15 -69 -25 -85 -11 -17 -20 -46 -20 -66 0 -20 -7 -42 -15 -49 -8 -7 -15 -18 -15 -25 0 -16 -29 -73 -41 -81 -5 -3 -7 -14 -4 -24 3 -10 1 -21 -5 -25 -5 -3 -10 -12 -10 -20 0 -18 -15 -52 -40 -90 -10 -16 -29 -50 -42 -74 -13 -24 -35 -53 -50 -64 -15 -11 -25 -24 -23 -28 10 -15 -50 -117 -112 -189 -18 -20 -33 -44 -33 -52 0 -8 -11 -20 -24 -26 -14 -6 -26 -22 -30 -43 -3 -18 -9 -29 -13 -26 -9 9 -53 -33 -53 -49 0 -8 -13 -20 -29 -29 -16 -8 -35 -28 -43 -45 -7 -16 -18 -30 -24 -30 -14 0 -64 -53 -64 -68 0 -7 -9 -12 -19 -12 -23 0 -83 -48 -76 -60 6 -9 -61 -65 -120 -100 -22 -14 -58 -41 -80 -62 -21 -21 -45 -38 -52 -38 -8 0 -30 -16 -49 -35 -19 -20 -39 -33 -43 -30 -5 2 -20 -4 -34 -15 -14 -11 -32 -20 -40 -20 -7 0 -22 -9 -31 -19 -10 -11 -38 -29 -62 -40 -24 -12 -44 -26 -44 -32 0 -6 -7 -8 -15 -5 -9 3 -40 -8 -70 -25 -30 -17 -58 -31 -62 -31 -17 -1 -51 -17 -57 -27 -10 -15 -69 -42 -105 -46 -17 -2 -40 -9 -51 -15 -11 -6 -20 -7 -20 -3 0 4 -6 1 -13 -7 -12 -16 -116 -54 -125 -46 -2 3 -19 -2 -36 -11 -17 -9 -44 -17 -61 -17 -18 -1 -29 -6 -27 -13 1 -8 -8 -13 -23 -13 -13 0 -44 -7 -67 -14 -24 -8 -65 -16 -91 -17 -27 -2 -50 -6 -53 -11 -3 -4 -20 -8 -39 -8 -19 0 -60 -7 -92 -15 -32 -8 -82 -18 -111 -22 -55 -6 -75 -19 -46 -30 21 -8 254 30 409 67 692 165 1306 549 1705 1065 225 291 388 627 464 955 44 189 52 289 25 306 -5 3 -11 -1 -13 -8z"/>
 <path d="M2053 7674 c-7 -18 9 -51 23 -46 14 3 11 55 -3 59 -7 3 -16 -3 -20 -13z"/>
 <path d="M2225 7040 c-4 -6 -3 -16 3 -22 6 -6 12 -6 17 2 4 6 3 16 -3 22 -6 6 -12 6 -17 -2z"/>
 <path d="M7360 6431 c-7 -13 -7 -22 0 -26 13 -8 30 3 30 20 0 23 -18 27 -30 6z"/>
 <path d="M2674 6359 c-10 -17 13 -36 27 -22 12 12 4 33 -11 33 -5 0 -12 -5 -16 -11z"/>
 <path d="M2825 6220 c-4 -6 -3 -16 3 -22 6 -6 12 -6 17 2 4 6 3 16 -3 22 -6 6 -12 6 -17 -2z"/>
 <path d="M2985 6079 c-11 -16 5 -31 20 -19 7 6 17 9 23 8 5 -2 12 1 14 6 4 12 -50 17 -57 5z"/>
 <path d="M6955 6080 c-4 -6 -3 -16 3 -22 6 -6 12 -6 17 2 4 6 3 16 -3 22 -6 6 -12 6 -17 -2z"/>
 <path d="M3196 5921 c-3 -5 0 -14 8 -20 10 -8 16 -8 25 2 6 8 8 17 4 20 -9 10 -31 9 -37 -2z"/>
 <path d="M3965 5601 c-7 -12 12 -24 25 -16 11 7 4 25 -10 25 -5 0 -11 -4 -15 -9z"/>
 <path d="M6081 5596 c-8 -10 -9 -16 -2 -21 14 -8 53 13 46 26 -9 13 -31 11 -44 -5z"/>
 <path d="M3845 5580 c-10 -17 12 -37 25 -24 8 8 6 15 -4 23 -10 9 -16 9 -21 1z"/>
 <path d="M4595 5361 c-7 -12 12 -24 25 -16 11 7 4 25 -10 25 -5 0 -11 -4 -15 -9z"/>
 <path d="M4684 5348 c-11 -18 39 -23 261 -26 249 -3 402 6 397 23 -2 11 -651 15 -658 3z"/>
 <path d="M4820 4930 c-165 -23 -325 -72 -465 -142 -107 -54 -128 -69 -116 -81 8 -8 95 24 141 53 39 25 99 52 135 61 61 15 89 25 119 41 10 5 39 12 65 14 25 3 62 9 81 14 55 14 328 24 342 13 7 -6 39 -11 72 -12 32 -1 67 -6 77 -11 10 -6 31 -10 48 -10 16 0 33 -4 36 -10 3 -5 23 -10 43 -10 20 -1 55 -9 77 -20 22 -11 46 -19 54 -20 8 0 29 -5 47 -12 26 -9 31 -16 30 -39 0 -16 4 -28 9 -26 6 1 9 5 8 9 -5 15 69 1 78 -15 6 -9 17 -17 25 -17 20 0 56 -21 72 -43 7 -10 21 -16 30 -15 9 2 16 -2 15 -9 -3 -14 65 -73 84 -73 7 0 36 -25 64 -55 29 -30 56 -52 60 -49 4 2 20 -16 34 -41 15 -25 30 -43 34 -40 5 2 14 -8 22 -23 8 -15 27 -45 42 -67 83 -120 107 -158 107 -169 0 -8 7 -19 15 -26 8 -7 15 -20 15 -29 0 -9 7 -29 15 -45 8 -15 15 -36 15 -45 0 -9 8 -29 18 -46 10 -16 24 -57 31 -90 7 -33 17 -73 21 -90 15 -52 23 -118 22 -176 -1 -43 4 -61 18 -74 10 -9 20 -13 23 -8 7 13 -11 182 -28 263 -51 236 -158 457 -311 641 -215 258 -516 440 -842 509 -111 24 -376 35 -482 20z"/>
 <path d="M5285 4811 c-7 -12 12 -24 25 -16 11 7 4 25 -10 25 -5 0 -11 -4 -15 -9z"/>
 <path d="M4131 4650 c-297 -224 -492 -526 -577 -895 -16 -65 -19 -120 -19 -295 0 -198 2 -224 27 -327 136 -571 579 -1003 1156 -1125 90 -19 137 -22 292 -22 189 1 228 6 401 52 123 33 287 107 395 180 31 20 67 44 80 53 103 68 294 278 382 420 40 63 129 251 136 287 1 9 8 30 15 46 6 16 9 31 6 34 -2 3 -1 10 4 16 27 34 63 297 42 310 -11 7 -33 -32 -25 -45 7 -13 -17 -174 -31 -211 -9 -23 -11 -39 -5 -43 6 -4 4 -15 -5 -28 -12 -19 -21 -48 -24 -80 -1 -4 -6 -6 -12 -5 -6 2 -13 -4 -14 -12 -14 -75 -77 -197 -147 -286 -26 -34 -48 -69 -48 -77 0 -8 -15 -28 -32 -43 -18 -15 -40 -39 -49 -53 -21 -33 -88 -106 -98 -106 -4 0 -22 -15 -40 -32 -18 -18 -37 -33 -42 -33 -5 0 -29 -18 -52 -39 -23 -22 -69 -54 -102 -71 -33 -18 -72 -39 -87 -47 -15 -8 -30 -18 -33 -23 -3 -5 -25 -12 -50 -15 -24 -4 -52 -16 -61 -26 -9 -10 -27 -19 -40 -19 -13 0 -26 -4 -29 -10 -3 -5 -21 -10 -39 -10 -18 0 -59 -9 -92 -20 -32 -12 -67 -19 -76 -16 -10 2 -20 0 -23 -4 -9 -15 -189 -21 -315 -11 -128 10 -191 21 -270 48 -25 9 -63 19 -85 22 -22 4 -49 12 -60 18 -11 5 -43 22 -71 36 -29 15 -58 27 -65 27 -6 0 -28 12 -48 27 -20 16 -39 27 -43 26 -4 -2 -15 8 -24 22 -12 19 -22 24 -37 19 -13 -4 -17 -2 -13 5 4 6 -3 16 -16 21 -62 28 -108 65 -108 87 0 7 3 12 8 11 4 -2 8 2 9 7 2 6 -12 10 -31 10 -24 0 -42 8 -60 28 -14 15 -30 27 -36 27 -5 0 -10 7 -10 16 0 20 -61 94 -77 94 -7 0 -13 11 -13 25 0 18 -7 28 -26 36 -15 5 -24 12 -21 16 4 3 -6 24 -22 47 -24 35 -43 79 -57 133 -2 7 -10 10 -19 7 -10 -4 -15 0 -15 15 0 12 -4 29 -9 39 -4 9 -18 37 -30 62 -12 25 -24 52 -25 60 -2 8 -5 22 -8 30 -3 8 -11 47 -18 85 -7 39 -17 76 -23 83 -11 14 -16 396 -6 472 3 25 11 55 18 67 6 12 13 45 16 73 3 28 14 68 25 90 11 21 20 46 20 54 0 9 9 31 20 51 11 20 20 42 20 49 0 7 9 21 20 31 11 10 20 28 20 40 0 13 7 28 15 35 8 7 15 19 15 28 0 15 41 68 97 127 18 18 35 44 37 57 2 13 9 22 15 21 14 -4 44 55 35 69 -4 7 -3 8 4 4 13 -8 72 20 72 34 0 5 13 16 29 25 16 8 32 24 36 34 3 11 37 41 76 66 38 26 69 50 69 55 0 25 -26 14 -99 -40z"/>
 <path d="M5664 4699 c-10 -17 13 -36 27 -22 12 12 4 33 -11 33 -5 0 -12 -5 -16 -11z"/>
 <path d="M8438 4524 c-10 -9 41 -106 52 -99 11 7 -4 52 -28 83 -10 13 -21 20 -24 16z"/>
 <path d="M5915 4501 c-3 -6 3 -15 14 -21 12 -6 22 -6 26 -1 3 6 -3 15 -14 21 -12 6 -22 6 -26 1z"/>
 <path d="M8257 4424 c-9 -10 32 -86 43 -79 6 4 1 23 -10 46 -22 41 -23 43 -33 33z"/>
 <path d="M8495 4410 c-9 -14 25 -74 36 -63 6 6 3 22 -7 41 -17 35 -20 37 -29 22z"/>
 <path d="M8537 4313 c-4 -6 0 -18 7 -28 8 -11 16 -14 19 -8 4 6 0 18 -7 28 -8 11 -16 14 -19 8z"/>
 <path d="M7897 4274 c-9 -9 52 -126 63 -119 10 6 6 20 -28 83 -24 44 -25 46 -35 36z"/>
 <path d="M8367 4174 c-4 -4 -3 -12 1 -18 4 -6 7 -14 8 -18 1 -5 3 -10 4 -13 1 -3 3 -9 4 -15 0 -5 4 -10 9 -10 4 0 10 0 13 0 4 0 1 7 -6 15 -7 8 -9 15 -5 15 4 0 1 7 -6 17 -8 9 -12 18 -11 20 6 8 -4 13 -11 7z"/>
 <path d="M6261 4096 c-7 -8 -8 -17 -3 -20 6 -3 15 1 21 8 7 8 8 17 3 20 -6 3 -15 -1 -21 -8z"/>
 <path d="M7326 4101 c-4 -5 -2 -13 4 -16 6 -4 24 -33 41 -66 16 -33 34 -57 39 -54 10 6 -3 41 -37 97 -25 41 -39 53 -47 39z"/>
 <path d="M8616 4101 c-10 -16 13 -66 25 -54 6 6 6 19 0 36 -11 29 -16 32 -25 18z"/>
 <path d="M7747 4094 c-3 -4 -2 -16 4 -26 8 -15 14 -17 22 -9 8 8 7 15 -4 26 -8 9 -18 13 -22 9z"/>
 <path d="M7995 4060 c-4 -6 -3 -16 3 -22 6 -6 12 -6 17 2 4 6 3 16 -3 22 -6 6 -12 6 -17 -2z"/>
 <path d="M7135 4030 c-4 -6 -3 -16 3 -22 6 -6 12 -6 17 2 4 6 3 16 -3 22 -6 6 -12 6 -17 -2z"/>
 <path d="M6281 3996 c-10 -11 -10 -20 -1 -36 13 -25 28 -16 32 19 4 28 -14 38 -31 17z"/>
 <path d="M8026 3962 c-3 -6 1 -15 8 -21 8 -7 17 -8 20 -3 3 6 -1 15 -8 21 -8 7 -17 8 -20 3z"/>
 <path d="M7178 3954 c-6 -6 38 -123 52 -137 19 -21 16 13 -6 68 -26 63 -37 79 -46 69z"/>
 <path d="M8655 3950 c-4 -6 -3 -16 3 -22 6 -6 12 -6 17 2 4 6 3 16 -3 22 -6 6 -12 6 -17 -2z"/>
 <path d="M7437 3883 c-3 -5 0 -21 8 -36 8 -15 11 -27 8 -27 -3 0 0 -7 7 -15 7 -8 16 -12 22 -9 5 3 4 12 -3 21 -7 8 -13 23 -14 34 -2 24 -20 44 -28 32z"/>
 <path d="M7825 3879 c-4 -6 -3 -15 3 -21 6 -6 8 -16 6 -23 -3 -7 -1 -16 5 -19 14 -9 25 14 13 26 -6 6 -8 16 -6 23 7 17 -12 29 -21 14z"/>
 <path d="M8685 3790 c-4 -6 -3 -16 3 -22 6 -6 12 -6 17 2 4 6 3 16 -3 22 -6 6 -12 6 -17 -2z"/>
 <path d="M8464 3766 c-4 -10 -2 -22 4 -28 8 -8 13 -7 18 6 4 10 2 22 -4 28 -8 8 -13 7 -18 -6z"/>
 <path d="M7475 3750 c-4 -6 -3 -16 3 -22 6 -6 12 -6 17 2 4 6 3 16 -3 22 -6 6 -12 6 -17 -2z"/>
 <path d="M7485 3700 c-4 -6 -3 -16 3 -22 6 -6 12 -6 17 2 4 6 3 16 -3 22 -6 6 -12 6 -17 -2z"/>
 <path d="M8707 3653 c-8 -16 -2 -73 8 -75 12 -3 16 70 4 77 -4 3 -9 2 -12 -2z"/>
 <path d="M7495 3640 c-4 -6 -3 -16 3 -22 6 -6 12 -6 17 2 4 6 3 16 -3 22 -6 6 -12 6 -17 -2z"/>
 <path d="M8094 3626 c-4 -10 -2 -22 4 -28 8 -8 13 -7 18 6 4 10 2 22 -4 28 -8 8 -13 7 -18 -6z"/>
 <path d="M7275 3597 c-9 -22 -2 -62 10 -60 6 1 11 14 13 29 4 32 -14 56 -23 31z"/>
 <path d="M7877 3513 c-8 -14 -2 -53 8 -56 12 -3 17 51 5 58 -5 3 -11 2 -13 -2z"/>
 <path d="M7274 3396 c-4 -10 -2 -22 4 -28 8 -8 13 -7 18 6 4 10 2 22 -4 28 -8 8 -13 7 -18 -6z"/>
 <path d="M3575 3390 c-4 -6 -3 -16 3 -22 6 -6 12 -6 17 2 4 6 3 16 -3 22 -6 6 -12 6 -17 -2z"/>
 <path d="M8094 3376 c-8 -21 3 -49 16 -41 5 3 10 15 10 25 0 25 -18 36 -26 16z"/>
 <path d="M7495 3350 c-4 -6 -3 -16 3 -22 6 -6 12 -6 17 2 4 6 3 16 -3 22 -6 6 -12 6 -17 -2z"/>
 <path d="M7865 3320 c-4 -6 -3 -16 3 -22 6 -6 12 -6 17 2 4 6 3 16 -3 22 -6 6 -12 6 -17 -2z"/>
 <path d="M7485 3290 c-4 -6 -3 -16 3 -22 6 -6 12 -6 17 2 4 6 3 16 -3 22 -6 6 -12 6 -17 -2z"/>
 <path d="M7475 3239 c-4 -5 -4 -13 -1 -16 3 -3 1 -12 -6 -20 -6 -7 -8 -16 -5 -20 4 -3 2 -12 -4 -20 -6 -7 -8 -13 -4 -13 4 0 2 -7 -5 -15 -7 -8 -9 -15 -5 -15 4 0 2 -6 -4 -14 -8 -9 -8 -16 -2 -20 5 -4 12 -2 16 4 3 5 3 10 -1 10 -3 0 -1 7 6 15 7 8 9 15 5 15 -4 0 -1 7 6 16 7 9 14 21 16 28 1 6 4 23 8 38 5 28 -8 47 -20 27z"/>
 <path d="M8465 3230 c-4 -6 -3 -16 3 -22 6 -6 12 -6 17 2 4 6 3 16 -3 22 -6 6 -12 6 -17 -2z"/>
 <path d="M8685 3200 c-4 -6 -3 -16 3 -22 6 -6 12 -6 17 2 4 6 3 16 -3 22 -6 6 -12 6 -17 -2z"/>
 <path d="M7839 3146 c-1 -3 -2 -9 -3 -13 -1 -5 -7 -18 -14 -30 -7 -12 -8 -24 -3 -27 11 -7 36 22 28 31 -4 3 -2 12 4 19 7 8 7 14 -1 19 -5 3 -11 4 -11 1z"/>
 <path d="M8050 3094 c-9 -10 -10 -18 -3 -25 8 -8 14 -5 22 9 13 25 -2 38 -19 16z"/>
 <path d="M7180 3041 c-6 -12 -6 -22 -1 -26 6 -3 15 3 21 14 6 12 6 22 1 26 -6 3 -15 -3 -21 -14z"/>
 <path d="M8655 3040 c-4 -6 -3 -16 3 -22 6 -6 12 -6 17 2 4 6 3 16 -3 22 -6 6 -12 6 -17 -2z"/>
 <path d="M7799 3016 c-1 -3 -2 -9 -3 -13 -1 -5 -10 -22 -19 -40 -9 -17 -13 -34 -8 -37 11 -7 30 15 34 40 1 10 6 24 10 31 4 6 3 14 -3 18 -5 3 -11 4 -11 1z"/>
 <path d="M8649 2996 c-1 -3 -2 -9 -3 -13 -1 -5 -5 -14 -9 -20 -5 -7 -5 -18 -2 -23 9 -14 28 -1 21 15 -2 7 0 17 6 23 6 6 6 12 -1 16 -6 4 -12 5 -12 2z"/>
 <path d="M8419 2976 c-1 -3 -2 -9 -3 -13 -1 -5 -5 -13 -9 -20 -4 -6 -3 -14 3 -18 5 -3 11 -4 11 -1 1 3 2 9 3 14 1 4 5 12 9 19 4 6 3 14 -3 18 -5 3 -11 4 -11 1z"/>
 <path d="M7375 2960 c-3 -5 -3 -10 1 -10 4 0 -1 -9 -10 -19 -10 -11 -13 -22 -8 -25 5 -3 15 1 22 9 7 8 9 15 5 15 -4 0 -2 6 4 14 8 9 8 16 2 20 -5 4 -12 2 -16 -4z"/>
 <path d="M7995 2930 c-4 -6 -3 -16 3 -22 6 -6 12 -6 17 2 4 6 3 16 -3 22 -6 6 -12 6 -17 -2z"/>
 <path d="M6264 2879 c-10 -17 13 -36 27 -22 12 12 4 33 -11 33 -5 0 -12 -5 -16 -11z"/>
 <path d="M7321 2876 c-9 -10 -9 -16 -1 -21 17 -10 37 12 24 25 -8 8 -15 6 -23 -4z"/>
 <path d="M8389 2876 c-1 -3 -2 -9 -3 -13 -1 -5 -5 -13 -9 -20 -4 -6 -3 -14 3 -18 5 -3 11 -4 11 -1 1 3 2 9 3 14 1 4 5 12 9 19 4 6 3 14 -3 18 -5 3 -11 4 -11 1z"/>
 <path d="M7940 2801 c-6 -12 -6 -22 -1 -26 6 -3 15 3 21 14 6 12 6 22 1 26 -6 3 -15 -3 -21 -14z"/>
 <path d="M8581 2776 c-7 -8 -8 -17 -3 -20 6 -3 15 1 21 8 7 8 8 17 3 20 -6 3 -15 -1 -21 -8z"/>
 <path d="M7910 2741 c-6 -12 -6 -22 -1 -26 6 -3 15 3 21 14 6 12 6 22 1 26 -6 3 -15 -3 -21 -14z"/>
 <path d="M8320 2701 c-6 -12 -6 -22 -1 -26 6 -3 15 3 21 14 6 12 6 22 1 26 -6 3 -15 -3 -21 -14z"/>
 <path d="M8280 2616 c-5 -15 -15 -36 -20 -46 -6 -12 -7 -21 0 -25 14 -9 54 75 41 88 -7 7 -13 2 -21 -17z"/>
 <path d="M8501 2586 c-7 -8 -8 -17 -3 -20 6 -3 15 1 21 8 7 8 8 17 3 20 -6 3 -15 -1 -21 -8z"/>
 <path d="M8450 2491 c-21 -43 -12 -66 12 -28 22 33 28 56 18 62 -5 3 -18 -12 -30 -34z"/>
 <path d="M4450 2175 c-10 -12 -9 -16 5 -21 19 -8 40 9 31 25 -10 15 -21 14 -36 -4z"/>
 </g>
<g id="layer5" fill="#fffffe" stroke="none">
 <path d="M2017 8028 c-33 -26 -38 -64 -26 -206 5 -76 15 -157 21 -182 5 -25 11 -69 13 -99 2 -29 8 -58 14 -64 6 -6 11 -27 11 -46 0 -40 13 -86 45 -156 12 -27 28 -78 35 -113 7 -34 20 -66 28 -71 8 -5 16 -22 17 -38 3 -38 33 -85 49 -76 7 4 6 1 -1 -9 -11 -12 -10 -21 3 -47 9 -18 25 -37 35 -44 10 -6 19 -19 19 -27 0 -8 11 -32 25 -52 14 -20 25 -44 25 -52 0 -8 6 -19 13 -23 13 -9 32 -37 46 -69 6 -12 19 -28 30 -36 12 -8 18 -18 15 -21 -7 -6 22 -49 80 -119 17 -20 41 -51 54 -68 13 -16 28 -27 34 -24 6 4 8 2 5 -3 -8 -12 76 -108 168 -193 33 -30 73 -70 89 -87 16 -18 35 -33 41 -33 6 0 22 -12 36 -26 35 -38 114 -94 132 -94 9 0 19 -9 22 -21 8 -25 84 -59 117 -53 l23 5 -23 -11 c-28 -12 -22 -25 15 -35 14 -3 51 -23 81 -43 57 -40 118 -77 142 -88 8 -4 23 -14 32 -21 9 -8 21 -12 27 -9 5 4 12 2 16 -4 3 -5 13 -10 21 -10 8 0 23 -9 35 -21 13 -13 27 -18 41 -13 13 4 18 2 14 -4 -4 -6 3 -16 14 -22 11 -6 20 -7 20 -3 0 4 5 2 12 -5 7 -7 21 -12 32 -12 17 0 79 -24 128 -51 10 -5 28 -9 41 -9 12 0 33 -7 45 -16 13 -9 35 -18 50 -19 50 -7 87 -18 102 -31 15 -13 97 -33 130 -32 8 0 51 -9 95 -21 44 -11 90 -21 102 -21 12 0 24 -4 28 -10 3 -5 12 -7 20 -4 8 3 29 1 47 -5 117 -38 826 -35 988 4 36 9 88 19 115 22 28 3 55 9 60 13 6 3 30 8 55 9 25 1 64 9 88 17 23 8 53 14 65 14 12 0 33 7 45 16 12 8 27 12 33 9 6 -4 21 3 34 15 13 12 28 19 34 16 12 -8 92 18 143 45 20 11 53 22 72 24 33 5 64 19 118 58 14 10 36 20 48 22 12 2 42 16 66 30 24 14 49 23 54 20 6 -4 24 5 42 20 17 14 44 29 60 32 18 3 34 15 40 29 6 13 15 21 20 18 5 -3 16 0 25 8 9 7 18 11 20 9 3 -2 25 12 51 30 49 36 58 43 145 103 31 21 54 42 52 46 -3 5 9 13 26 19 34 12 116 86 125 113 3 10 19 21 37 26 19 5 37 19 47 37 9 17 29 36 44 43 15 8 31 24 36 37 5 12 22 32 39 44 17 12 36 34 43 49 7 15 20 27 28 27 8 0 22 15 31 32 9 18 26 41 37 50 11 10 29 32 39 49 10 17 32 50 48 74 17 23 44 68 61 99 17 31 37 56 45 56 8 1 13 6 11 13 -1 7 8 29 21 50 13 20 27 44 30 52 4 8 16 29 27 45 11 17 24 41 30 55 6 14 15 34 20 45 5 11 9 29 7 40 -1 12 4 20 13 20 8 0 14 9 13 19 0 10 10 38 23 62 13 23 24 58 24 76 0 18 9 46 20 63 10 16 22 54 25 85 4 30 16 81 27 112 11 32 18 64 15 72 -4 9 -2 18 3 21 6 4 10 28 10 54 0 26 5 52 10 57 16 16 25 306 11 332 l-12 22 -2977 0 c-2367 0 -2982 -3 -2995 -12z"/>
 <path d="M4860 4919 c-36 -3 -72 -8 -80 -12 -8 -3 -41 -8 -73 -10 -32 -3 -66 -12 -75 -20 -9 -8 -22 -12 -29 -10 -6 2 -24 -2 -40 -10 -15 -8 -46 -18 -68 -22 -21 -3 -62 -21 -90 -39 -27 -18 -77 -44 -110 -56 -33 -13 -67 -31 -75 -39 -8 -9 -34 -29 -58 -44 -24 -15 -71 -55 -105 -89 -34 -33 -74 -66 -89 -74 -16 -8 -28 -19 -28 -23 0 -5 -16 -24 -35 -42 -18 -18 -32 -36 -29 -40 2 -4 -11 -23 -31 -42 -19 -19 -35 -38 -35 -42 0 -4 -16 -27 -35 -51 -19 -23 -35 -49 -35 -57 0 -8 -7 -20 -15 -27 -8 -7 -15 -21 -15 -31 0 -11 -9 -28 -20 -39 -11 -11 -20 -27 -20 -35 0 -8 -9 -30 -20 -50 -11 -20 -20 -42 -20 -51 0 -8 -9 -33 -20 -54 -11 -22 -22 -62 -25 -90 -3 -28 -10 -61 -16 -73 -7 -12 -15 -42 -18 -67 -10 -76 -5 -458 6 -472 6 -7 16 -44 23 -83 7 -38 15 -77 18 -85 3 -8 6 -22 8 -30 1 -8 13 -35 25 -60 12 -25 26 -53 30 -62 5 -10 9 -26 9 -37 0 -10 7 -24 15 -31 9 -7 34 -49 55 -93 43 -86 67 -120 81 -111 5 3 9 -4 9 -16 0 -12 22 -43 50 -71 27 -27 49 -53 47 -57 -1 -4 20 -29 46 -54 33 -32 53 -45 65 -41 9 3 14 2 9 -2 -8 -10 51 -75 68 -75 6 0 22 -12 36 -26 13 -14 38 -32 54 -40 17 -8 50 -27 75 -44 25 -16 52 -32 60 -35 8 -3 35 -16 60 -28 24 -12 49 -22 55 -22 5 -1 21 -8 35 -17 14 -8 47 -18 73 -22 27 -3 58 -13 70 -21 12 -8 34 -15 49 -15 14 0 39 -5 54 -11 16 -5 93 -15 173 -21 167 -12 312 -1 405 32 33 11 74 20 92 20 18 0 36 5 39 10 3 6 17 10 31 10 13 0 33 9 44 20 11 11 29 20 39 20 11 0 23 5 26 10 4 6 11 8 16 4 5 -3 17 0 25 7 17 14 79 49 131 74 18 8 47 28 65 43 18 15 57 43 86 61 28 18 52 37 52 42 0 13 42 49 51 43 5 -3 14 6 20 19 6 14 22 30 35 36 13 6 23 14 22 18 -4 14 23 54 32 48 11 -7 60 64 60 87 0 9 13 26 30 38 16 12 33 32 36 46 3 13 10 24 14 24 10 0 100 186 100 208 0 5 9 21 21 35 11 15 22 37 24 49 3 13 10 36 16 51 7 15 9 30 6 33 -3 4 0 23 8 43 14 36 38 201 31 209 -3 2 2 22 10 44 18 52 18 112 0 128 -10 8 -15 30 -14 68 1 59 -7 124 -22 177 -4 17 -13 57 -21 90 -7 33 -16 65 -21 71 -4 6 -6 13 -3 16 3 3 -1 11 -10 18 -8 7 -15 27 -15 45 0 18 -7 38 -15 45 -8 7 -15 23 -15 37 0 13 -7 26 -15 29 -8 4 -15 12 -15 20 0 7 -13 33 -30 57 -16 25 -30 49 -30 55 0 5 -10 16 -22 24 -11 8 -22 25 -23 39 -1 13 -7 23 -13 22 -6 -2 -19 13 -28 32 -9 20 -24 41 -33 48 -9 7 -29 29 -44 50 -16 20 -32 35 -36 33 -4 -3 -32 21 -61 54 -29 33 -57 57 -61 54 -4 -2 -13 5 -19 16 -6 11 -15 18 -19 16 -4 -3 -18 8 -29 24 -13 17 -28 27 -36 24 -7 -3 -16 2 -19 10 -3 8 -26 24 -50 35 -24 11 -50 27 -57 36 -7 8 -20 13 -29 10 -18 -5 -44 8 -39 20 3 9 -94 50 -130 56 -4 0 -12 5 -19 11 -6 5 -37 12 -68 15 -30 3 -58 10 -61 14 -3 5 -19 9 -35 9 -17 0 -39 4 -49 10 -10 5 -46 10 -79 11 -34 1 -64 6 -67 11 -6 10 -141 8 -264 -3z"/>
 <path d="M8228 4674 c-31 -16 -58 -61 -58 -96 0 -13 21 -57 46 -98 47 -75 104 -190 104 -208 0 -6 6 -23 14 -39 18 -35 33 -70 46 -106 6 -19 14 -26 22 -21 10 6 10 4 0 -8 -10 -13 -10 -24 2 -59 21 -62 65 -285 71 -360 6 -74 7 -287 1 -374 -5 -68 -49 -307 -70 -376 -11 -36 -12 -50 -3 -59 9 -10 9 -11 0 -6 -13 7 -30 -25 -60 -114 -25 -74 -108 -240 -156 -314 -44 -67 13 -166 95 -166 35 0 84 35 111 77 47 75 154 289 172 343 10 30 27 74 37 97 11 23 20 52 22 65 1 13 5 28 8 33 8 14 36 116 40 145 2 14 7 30 10 36 17 27 42 278 41 414 -1 175 -19 363 -41 420 -3 8 -7 31 -9 50 -3 19 -13 60 -24 90 -10 30 -19 62 -19 70 0 9 -11 39 -25 66 -14 27 -25 54 -25 60 0 33 -158 348 -198 395 -47 56 -102 72 -154 43z"/>
 <path d="M7708 4394 c-31 -16 -58 -61 -58 -96 0 -13 10 -39 22 -58 78 -126 163 -361 182 -505 28 -208 27 -370 -4 -512 -6 -28 -10 -57 -9 -65 1 -7 -1 -20 -4 -28 -4 -8 -19 -55 -35 -105 -32 -100 -69 -182 -119 -265 -18 -30 -33 -65 -33 -78 0 -57 56 -112 115 -112 59 0 119 58 158 153 11 29 29 64 39 78 10 15 19 35 21 45 2 11 14 42 27 69 26 58 57 163 75 255 7 36 14 65 15 65 7 0 12 90 12 250 0 195 -1 211 -20 280 -6 22 -13 58 -15 80 -13 101 -144 410 -213 501 -47 61 -102 78 -156 48z"/>
 <path d="M7195 4131 c-16 -10 -38 -34 -49 -54 l-19 -36 46 -93 c45 -93 58 -125 63 -163 2 -11 6 -31 9 -45 24 -96 35 -178 34 -260 -1 -85 -6 -122 -40 -280 -13 -62 -53 -160 -83 -205 -43 -62 -27 -138 34 -170 36 -19 63 -19 98 -1 32 17 100 104 105 134 2 12 10 29 18 39 17 20 41 70 45 93 1 8 14 60 28 115 32 118 39 171 39 280 0 119 -23 261 -57 354 -9 24 -13 47 -10 52 3 5 -1 11 -8 14 -8 3 -14 15 -15 26 -1 12 -8 29 -16 38 -7 9 -19 30 -26 46 -21 51 -63 106 -92 121 -38 19 -68 18 -104 -5z"/>
 </g>
<g id="layer6" fill="#2294d2" stroke="none">
 <path d="M0 5000 l0 -5000 5000 0 5000 0 0 5000 0 5000 -5000 0 -5000 0 0 -5000z m7990 2906 c0 -487 -187 -1003 -519 -1431 -429 -553 -1109 -945 -1877 -1085 -559 -102 -1253 -43 -1759 150 -11 4 -47 17 -80 30 -33 12 -141 62 -240 110 -669 327 -1176 881 -1393 1525 -80 234 -112 411 -119 647 l-6 176 24 5 c13 2 1362 5 2997 6 l2972 1 0 -134z m-2688 -3016 c570 -120 1008 -555 1132 -1125 77 -353 4 -769 -188 -1077 -83 -134 -246 -313 -356 -393 -152 -110 -325 -196 -479 -237 -173 -46 -212 -51 -401 -52 -155 0 -202 3 -292 22 -244 52 -448 149 -644 306 -236 189 -417 483 -492 799 -25 103 -27 129 -27 327 0 175 3 230 19 295 32 137 66 236 122 350 217 439 632 736 1124 805 106 15 371 4 482 -20z m3029 -235 c16 -9 46 -41 66 -72 39 -62 123 -221 123 -234 0 -5 13 -37 28 -71 53 -115 101 -278 128 -433 26 -145 29 -188 28 -365 0 -235 -25 -400 -91 -605 -14 -44 -27 -91 -30 -105 -2 -13 -8 -29 -13 -35 -4 -5 -18 -35 -30 -65 -59 -150 -172 -345 -211 -365 -70 -36 -139 4 -139 80 0 13 13 46 28 72 117 200 214 461 253 681 28 154 35 462 14 607 -25 172 -81 382 -130 489 -69 153 -106 228 -133 270 -18 28 -32 60 -32 72 0 76 70 115 141 79z m-525 -278 c12 -7 33 -25 46 -42 43 -52 126 -223 155 -320 8 -27 20 -56 25 -62 6 -7 8 -13 4 -13 -3 0 -1 -12 5 -27 6 -16 13 -41 15 -58 3 -16 8 -37 11 -45 3 -8 7 -24 8 -35 2 -11 7 -47 11 -80 11 -71 12 -339 2 -410 -3 -27 -11 -72 -17 -100 -6 -27 -13 -61 -15 -75 -5 -28 -52 -174 -66 -205 -5 -11 -27 -60 -50 -110 -23 -49 -43 -95 -44 -101 -3 -17 -60 -80 -84 -93 -51 -27 -114 -5 -136 48 -14 35 -13 38 22 101 41 74 84 160 86 175 1 6 12 36 24 67 12 32 24 68 26 80 3 13 15 61 27 108 27 110 36 424 15 540 -26 142 -74 302 -105 349 -8 13 -16 30 -17 38 -1 8 -21 50 -43 93 -43 83 -48 104 -30 144 19 42 81 58 125 33z m-496 -269 c19 -14 46 -48 64 -84 29 -57 59 -122 62 -134 5 -24 18 -67 23 -75 3 -5 6 -14 7 -20 1 -5 10 -48 19 -95 22 -102 26 -300 9 -385 -7 -33 -15 -76 -19 -95 -7 -41 -8 -46 -24 -84 -6 -16 -13 -36 -14 -45 -2 -9 -18 -47 -35 -85 -18 -38 -32 -71 -32 -73 0 -14 -58 -76 -81 -89 -70 -36 -139 5 -139 83 0 14 13 49 29 77 114 199 148 493 86 736 -3 14 -8 34 -10 46 -7 31 -63 164 -85 202 -24 41 -25 52 -3 91 32 54 89 66 143 29z"/>
 </g>

</svg>