<!DOCTYPE svg PUBLIC "-//W3C//DTD SVG 20010904//EN" "http://www.w3.org/TR/2001/REC-SVG-20010904/DTD/svg10.dtd">
<svg version="1.0" xmlns="http://www.w3.org/2000/svg" width="512px" height="512px" viewBox="0 0 5120 5120" preserveAspectRatio="xMidYMid meet">
<g id="layer1" fill="#ffffff" stroke="none">
 <path d="M3285 4346 c-244 -56 -444 -237 -521 -473 -25 -77 -29 -103 -29 -208 0 -105 4 -131 29 -208 89 -272 340 -468 621 -484 81 -5 148 2 212 22 l23 7 2 -908 3 -909 570 0 570 0 0 240 0 240 -327 3 -328 2 -2 1083 -3 1082 -28 70 c-78 195 -245 355 -438 419 -102 34 -258 44 -354 22z"/>
 <path d="M485 3457 c-3 -7 -4 -118 -3 -247 l3 -235 910 0 910 0 0 245 0 245 -908 3 c-729 2 -909 0 -912 -11z"/>
 <path d="M485 2557 c-3 -7 -4 -118 -3 -247 l3 -235 1360 0 1360 0 0 245 0 245 -1358 3 c-1092 2 -1359 0 -1362 -11z"/>
 <path d="M485 1657 c-3 -7 -4 -116 -3 -242 l3 -230 1360 0 1360 0 0 240 0 240 -1358 3 c-1093 2 -1359 0 -1362 -11z"/>
 </g>
<g id="layer2" fill="#2294d2" stroke="none">
 <path d="M0 2560 l0 -2560 2560 0 2560 0 0 2560 0 2560 -2560 0 -2560 0 0 -2560z m3639 1744 c191 -63 341 -207 418 -399 l28 -70 5 -1090 5 -1090 328 -3 327 -2 0 -225 0 -225 -555 0 -555 0 0 905 c0 1000 5 932 -63 904 -21 -9 -73 -14 -152 -14 -105 0 -131 4 -209 29 -207 68 -364 225 -432 433 -25 77 -29 103 -29 208 0 105 4 131 29 208 76 232 259 398 501 453 96 22 252 12 354 -22z m-1349 -1084 l0 -230 -895 0 -895 0 0 230 0 230 895 0 895 0 0 -230z m900 -900 l0 -230 -1345 0 -1345 0 0 230 0 230 1345 0 1345 0 0 -230z m0 -895 l0 -225 -1345 0 -1345 0 0 225 0 225 1345 0 1345 0 0 -225z"/>
 </g>

</svg>