<!DOCTYPE svg PUBLIC "-//W3C//DTD SVG 20010904//EN" "http://www.w3.org/TR/2001/REC-SVG-20010904/DTD/svg10.dtd">
<svg version="1.0" xmlns="http://www.w3.org/2000/svg" width="1000px" height="1000px" viewBox="0 0 10000 10000" preserveAspectRatio="xMidYMid meet">
<g id="layer1" fill="#ebdfe3" stroke="none">
 <path d="M2185 7051 c-6 -11 1 -15 18 -12 4 1 3 -8 -3 -18 -6 -12 -6 -22 -1 -26 6 -3 15 3 20 13 8 15 6 23 -8 36 -13 11 -21 14 -26 7z"/>
 <path d="M7620 6771 c-6 -12 -6 -22 -1 -26 6 -3 15 3 21 14 6 12 6 22 1 26 -6 3 -15 -3 -21 -14z"/>
 <path d="M2405 6641 c-2 -4 7 -17 20 -29 23 -23 24 -23 34 -3 8 15 8 22 -1 27 -16 10 -48 13 -53 5z"/>
 <path d="M2706 6262 c-3 -5 3 -17 13 -26 11 -10 22 -13 25 -8 3 5 -3 17 -13 26 -11 10 -22 13 -25 8z"/>
 <path d="M7204 6238 c-6 -9 -4 -10 26 -11 11 -1 19 3 18 8 -4 12 -37 14 -44 3z"/>
 <path d="M6981 6021 c-19 -16 -30 -31 -24 -34 5 -3 25 6 43 22 19 15 29 30 24 33 -5 4 -25 -6 -43 -21z"/>
 <path d="M6911 5976 c-7 -8 -8 -17 -3 -20 6 -3 15 1 21 8 7 8 8 17 3 20 -6 3 -15 -1 -21 -8z"/>
 <path d="M6675 5841 c-3 -6 3 -15 14 -21 12 -6 22 -6 26 -1 3 6 -3 15 -14 21 -12 6 -22 6 -26 1z"/>
 <path d="M3275 5821 c-3 -6 3 -15 14 -21 12 -6 22 -6 26 -1 3 6 -3 15 -14 21 -12 6 -22 6 -26 1z"/>
 <path d="M6641 5816 c-18 -21 10 -40 34 -22 18 13 18 14 -2 24 -16 9 -24 8 -32 -2z"/>
 <path d="M6554 5748 c-5 -8 3 -12 20 -9 4 1 14 -3 21 -9 9 -7 15 -7 19 -1 4 5 1 13 -6 17 -18 11 -48 12 -54 2z"/>
 <path d="M3595 5671 c-7 -12 12 -24 25 -16 11 7 4 25 -10 25 -5 0 -11 -4 -15 -9z"/>
 <path d="M6356 5667 c-19 -14 -19 -15 3 -27 29 -15 46 -1 28 23 -11 16 -15 16 -31 4z"/>
 <path d="M3725 5591 c-7 -12 12 -24 25 -16 11 7 4 25 -10 25 -5 0 -11 -4 -15 -9z"/>
 <path d="M3975 5501 c-7 -12 12 -24 25 -16 11 7 4 25 -10 25 -5 0 -11 -4 -15 -9z"/>
 <path d="M4755 4901 c-7 -12 12 -24 25 -16 11 7 4 25 -10 25 -5 0 -11 -4 -15 -9z"/>
 <path d="M4575 4851 c-7 -12 12 -24 25 -16 11 7 4 25 -10 25 -5 0 -11 -4 -15 -9z"/>
 <path d="M5599 4778 c-11 -42 -1 -54 26 -34 18 13 18 14 -3 25 -12 6 -22 10 -23 9z"/>
 <path d="M4345 4760 c-4 -6 -10 -8 -15 -5 -5 3 -11 1 -14 -4 -4 -5 -2 -12 3 -15 5 -4 12 -2 16 4 4 6 10 8 15 5 5 -3 11 -1 14 4 4 5 2 12 -3 15 -5 4 -12 2 -16 -4z"/>
 <path d="M4219 4719 c-6 -31 -6 -40 1 -44 4 -3 13 1 19 9 9 10 8 16 -4 26 -8 7 -15 11 -16 9z"/>
 <path d="M5921 4576 c-7 -8 -8 -17 -3 -20 6 -3 15 1 21 8 7 8 8 17 3 20 -6 3 -15 -1 -21 -8z"/>
 <path d="M5955 4550 c-4 -6 -3 -16 3 -22 6 -6 12 -6 17 2 4 6 3 16 -3 22 -6 6 -12 6 -17 -2z"/>
 <path d="M4005 4540 c-10 -17 12 -37 25 -24 8 8 6 15 -4 23 -10 9 -16 9 -21 1z"/>
 <path d="M3810 4284 c-9 -10 -10 -18 -3 -25 8 -8 14 -5 22 9 13 25 -2 38 -19 16z"/>
 <path d="M6171 4262 c-13 -25 2 -38 19 -16 9 10 10 18 3 25 -8 8 -14 5 -22 -9z"/>
 <path d="M3897 2553 c-4 -6 0 -18 7 -28 8 -11 16 -14 19 -8 4 6 0 18 -7 28 -8 11 -16 14 -19 8z"/>
 <path d="M3919 2474 c-6 -8 -6 -14 0 -18 5 -4 12 -2 16 4 8 14 26 13 23 -1 -3 -13 30 -21 37 -9 7 11 -23 34 -46 35 -11 1 -24 -4 -30 -11z"/>
 <path d="M5990 2405 c-13 -14 -22 -25 -19 -26 2 0 12 -2 21 -4 18 -3 31 9 34 32 4 24 -13 22 -36 -2z"/>
 <path d="M4051 2386 c-7 -8 -8 -17 -3 -20 6 -3 15 1 21 8 7 8 8 17 3 20 -6 3 -15 -1 -21 -8z"/>
 <path d="M4301 2196 c-7 -8 -8 -17 -3 -20 6 -3 15 1 21 8 7 8 8 17 3 20 -6 3 -15 -1 -21 -8z"/>
 <path d="M5195 2031 c-7 -12 12 -24 25 -16 11 7 4 25 -10 25 -5 0 -11 -4 -15 -9z"/>
 </g>
<g id="layer2" fill="#f9f0e0" stroke="none">
 <path d="M2036 7681 c-4 -6 -6 -27 -5 -48 1 -21 1 -42 -1 -48 -6 -23 1 -27 19 -11 14 12 17 27 15 58 -4 44 -17 67 -28 49z"/>
 <path d="M7934 7675 c-4 -9 -2 -32 3 -50 8 -26 7 -36 -4 -48 -20 -20 -8 -40 16 -27 24 12 28 111 6 130 -12 10 -16 9 -21 -5z"/>
 <path d="M2041 7538 c-12 -33 -4 -40 25 -22 29 20 29 20 4 34 -17 9 -22 7 -29 -12z"/>
 <path d="M2065 7400 c-4 -6 -3 -16 3 -22 6 -6 12 -6 17 2 4 6 3 16 -3 22 -6 6 -12 6 -17 -2z"/>
 <path d="M7872 7379 c-10 -25 -1 -64 13 -64 5 0 12 13 17 30 5 21 3 34 -7 44 -12 13 -15 11 -23 -10z"/>
 <path d="M7854 7306 c-8 -21 3 -49 16 -41 5 3 10 15 10 25 0 25 -18 36 -26 16z"/>
 <path d="M2123 7274 c-3 -9 -1 -25 6 -37 6 -12 12 -37 13 -55 1 -19 6 -36 10 -38 12 -8 29 34 23 58 -3 13 -7 36 -8 52 -2 32 -34 46 -44 20z"/>
 <path d="M7835 7238 c-7 -19 0 -53 10 -51 13 4 17 51 5 58 -6 3 -12 0 -15 -7z"/>
 <path d="M2187 7123 c-3 -5 -1 -19 4 -32 9 -23 10 -23 29 -6 18 17 19 30 2 30 -4 0 -12 4 -19 8 -6 4 -14 4 -16 0z"/>
 <path d="M7790 7111 c-6 -12 -6 -22 -1 -26 6 -3 15 3 21 14 6 12 6 22 1 26 -6 3 -15 -3 -21 -14z"/>
 <path d="M2206 7041 c-4 -5 -2 -12 2 -15 5 -3 7 -16 5 -30 -6 -27 13 -69 28 -61 14 9 11 61 -6 75 -8 7 -13 16 -10 20 3 5 1 11 -4 14 -5 4 -12 2 -15 -3z"/>
 <path d="M7755 7010 c-4 -6 -3 -16 3 -22 6 -6 12 -6 17 2 4 6 3 16 -3 22 -6 6 -12 6 -17 -2z"/>
 <path d="M7686 6891 c-18 -19 -21 -56 -7 -66 11 -6 34 30 36 58 2 26 -10 29 -29 8z"/>
 <path d="M2298 6884 c-7 -11 -4 -52 4 -60 4 -3 11 3 17 14 7 14 7 24 -3 37 -7 10 -15 14 -18 9z"/>
 <path d="M7625 6790 c-4 -6 -10 -8 -15 -5 -5 3 -11 1 -14 -4 -4 -5 -2 -12 3 -15 5 -4 12 -2 16 4 4 6 10 8 15 5 5 -3 11 -1 14 4 4 5 2 12 -3 15 -5 4 -12 2 -16 -4z"/>
 <path d="M2375 6720 c-10 -16 16 -43 28 -31 11 11 2 41 -12 41 -5 0 -13 -5 -16 -10z"/>
 <path d="M7596 6722 c-3 -6 1 -15 8 -21 8 -7 17 -8 20 -3 3 6 -1 15 -8 21 -8 7 -17 8 -20 3z"/>
 <path d="M7554 6656 c-4 -10 -2 -22 4 -28 8 -8 13 -7 18 6 4 10 2 22 -4 28 -8 8 -13 7 -18 -6z"/>
 <path d="M2451 6632 c-7 -13 -7 -22 1 -30 7 -7 9 -12 5 -12 -4 0 -3 -9 3 -20 14 -26 28 -18 24 12 -10 67 -17 79 -33 50z"/>
 <path d="M7515 6590 c-4 -6 -3 -16 3 -22 6 -6 12 -6 17 2 4 6 3 16 -3 22 -6 6 -12 6 -17 -2z"/>
 <path d="M2494 6539 c-3 -6 3 -20 14 -32 19 -19 22 -19 28 -4 11 29 -26 61 -42 36z"/>
 <path d="M7441 6512 c-6 -10 -7 -22 -3 -26 3 -4 -1 -4 -10 -1 -19 7 -34 -10 -17 -21 17 -10 66 43 52 57 -8 8 -14 6 -22 -9z"/>
 <path d="M2540 6481 c-7 -13 -7 -22 0 -26 13 -8 30 3 30 20 0 23 -18 27 -30 6z"/>
 <path d="M2595 6399 c-5 -7 2 -19 16 -30 22 -17 25 -17 37 -2 7 10 11 22 9 28 -5 15 -54 18 -62 4z"/>
 <path d="M2675 6322 c-3 -3 0 -11 6 -18 8 -10 16 -11 31 -3 11 6 17 13 14 17 -8 7 -44 10 -51 4z"/>
 <path d="M2776 6237 c-16 -12 -16 -14 3 -31 12 -11 21 -16 21 -11 0 4 7 2 15 -5 12 -10 16 -9 21 3 9 25 -5 40 -24 25 -13 -11 -15 -10 -9 4 8 23 -6 30 -27 15z"/>
 <path d="M2836 6161 c-3 -4 2 -18 10 -30 13 -18 19 -20 30 -10 8 7 14 19 12 27 -3 16 -44 27 -52 13z"/>
 <path d="M7036 6151 c-8 -12 31 -44 44 -36 15 9 1 27 -17 21 -8 -3 -11 -2 -8 3 3 5 1 12 -4 15 -5 4 -12 2 -15 -3z"/>
 <path d="M2925 6080 c-4 -6 9 -17 27 -25 18 -8 29 -14 24 -15 -16 0 16 -30 50 -46 36 -17 68 -10 43 10 -8 6 -19 20 -25 31 -7 11 -21 19 -32 18 -13 -2 -19 3 -18 13 1 19 -59 30 -69 14z"/>
 <path d="M6996 6081 c-3 -5 1 -14 9 -21 21 -17 8 -32 -17 -19 -21 12 -45 -1 -35 -18 5 -8 40 -10 57 -3 3 1 8 2 12 1 15 -2 28 37 15 46 -24 19 -36 23 -41 14z"/>
 <path d="M6883 5997 c-8 -10 -10 -37 -4 -63 2 -9 31 17 42 37 12 23 -23 47 -38 26z"/>
 <path d="M3125 5921 c-7 -12 12 -24 25 -16 11 7 4 25 -10 25 -5 0 -11 -4 -15 -9z"/>
 <path d="M3189 5904 c-9 -30 5 -54 32 -54 40 0 31 42 -11 53 -11 3 -21 3 -21 1z"/>
 <path d="M6787 5893 c-27 -14 -29 -33 -3 -33 16 0 50 37 39 42 -4 3 -20 -2 -36 -9z"/>
 <path d="M3287 5843 c-13 -12 -7 -24 16 -32 31 -12 41 -2 21 20 -18 20 -27 23 -37 12z"/>
 <path d="M6633 5837 c-9 -14 28 -39 41 -28 10 9 17 11 33 11 4 0 2 5 -4 11 -14 14 -62 19 -70 6z"/>
 <path d="M3434 5748 c-7 -11 35 -50 47 -43 5 4 7 10 4 15 -3 4 2 11 11 14 9 4 14 9 10 13 -8 9 -67 10 -72 1z"/>
 <path d="M3496 5702 c-3 -6 1 -15 8 -21 8 -7 17 -8 20 -3 3 6 -1 15 -8 21 -8 7 -17 8 -20 3z"/>
 <path d="M3645 5681 c-3 -6 -10 -9 -15 -6 -5 3 -11 1 -15 -4 -7 -12 31 -34 44 -26 10 5 9 30 -1 40 -3 4 -9 1 -13 -4z"/>
 <path d="M6326 5677 c-14 -10 -15 -15 -4 -29 12 -16 14 -16 37 1 24 18 24 19 4 29 -15 8 -25 8 -37 -1z"/>
 <path d="M3745 5600 c-8 -12 20 -24 35 -15 6 4 9 3 8 -2 -2 -4 2 -10 7 -11 6 -2 15 -8 22 -14 7 -5 17 -7 23 -3 14 9 1 28 -15 21 -7 -2 -21 4 -31 15 -19 21 -39 25 -49 9z"/>
 <path d="M6129 5594 c-5 -7 -24 -16 -40 -19 -32 -7 -56 -39 -39 -50 6 -4 19 -3 28 1 9 4 26 8 37 8 12 1 19 7 17 15 -2 9 4 12 17 8 22 -5 57 25 47 41 -8 14 -54 11 -67 -4z"/>
 <path d="M6215 5600 c-3 -5 -2 -10 2 -12 13 -7 33 -3 36 6 3 12 -31 17 -38 6z"/>
 <path d="M3965 5520 c-8 -12 20 -24 35 -15 6 3 8 11 5 16 -8 12 -32 12 -40 -1z"/>
 <path d="M4030 5530 c-7 -31 -7 -41 2 -46 19 -12 29 11 13 32 -8 10 -15 17 -15 14z"/>
 <path d="M5919 5526 c-8 -10 -4 -39 6 -42 16 -7 67 25 60 36 -4 7 -61 11 -66 6z"/>
 <path d="M4068 5513 c-7 -14 -3 -33 6 -33 12 -1 17 28 6 35 -5 3 -10 2 -12 -2z"/>
 <path d="M4125 5461 c-7 -12 12 -24 25 -16 11 7 4 25 -10 25 -5 0 -11 -4 -15 -9z"/>
 <path d="M5666 5441 c-9 -15 23 -36 35 -24 8 8 5 14 -9 22 -12 6 -23 7 -26 2z"/>
 <path d="M5555 5421 c-7 -12 12 -24 25 -16 11 7 4 25 -10 25 -5 0 -11 -4 -15 -9z"/>
 <path d="M4916 4911 c-8 -12 31 -44 44 -36 8 5 6 13 -6 26 -19 21 -30 24 -38 10z"/>
 <path d="M5036 4913 c-3 -3 -1 -14 5 -24 10 -20 34 -25 43 -10 7 10 -39 43 -48 34z"/>
 <path d="M4875 4890 c-8 -12 20 -24 35 -15 6 3 8 11 5 16 -8 12 -32 12 -40 -1z"/>
 <path d="M4602 4857 c-9 -10 -8 -18 2 -32 16 -22 37 -11 32 17 -4 27 -19 33 -34 15z"/>
 <path d="M5275 4860 c-11 -18 13 -36 31 -25 9 6 16 15 17 20 3 14 -40 18 -48 5z"/>
 <path d="M5405 4831 c-7 -12 54 -43 67 -35 13 8 -21 44 -43 44 -10 0 -20 -4 -24 -9z"/>
 <path d="M4375 4757 c-11 -5 -27 -13 -35 -17 -8 -4 -13 -11 -10 -16 7 -13 52 -5 70 12 19 19 1 35 -25 21z"/>
 <path d="M5619 4744 c-6 -8 -9 -15 -5 -15 12 -3 21 -6 39 -13 22 -10 53 12 38 27 -16 16 -59 17 -72 1z"/>
 <path d="M4231 4687 c-6 -8 -8 -17 -5 -20 10 -9 45 13 39 24 -9 13 -21 11 -34 -4z"/>
 <path d="M5759 4688 c-1 -5 -2 -11 -3 -15 -1 -5 -5 -14 -9 -21 -12 -18 14 -25 47 -12 25 9 28 36 3 27 -7 -2 -17 3 -24 12 -7 9 -13 13 -14 9z"/>
 <path d="M5885 4580 c-3 -5 4 -14 16 -20 11 -7 18 -14 15 -17 -10 -10 15 -45 29 -39 7 2 15 -4 18 -16 4 -13 11 -19 21 -15 8 3 17 -1 20 -9 3 -9 11 -12 17 -9 5 4 19 -1 29 -10 10 -9 21 -12 24 -7 3 5 -3 17 -14 27 -11 10 -20 15 -20 11 0 -4 -16 9 -36 28 -20 20 -41 33 -45 30 -5 -3 -9 2 -9 10 0 19 -56 50 -65 36z"/>
 <path d="M4075 4570 c-3 -5 -3 -10 1 -10 4 0 0 -8 -8 -17 -11 -13 -13 -25 -7 -41 12 -30 28 -19 24 16 -1 15 2 32 7 39 5 7 5 14 -1 17 -5 4 -12 2 -16 -4z"/>
 <path d="M4001 4496 c-9 -10 -9 -16 -1 -21 13 -8 42 14 34 26 -8 13 -20 11 -33 -5z"/>
 <path d="M3903 4408 c-12 -16 -11 -57 2 -60 15 -4 31 50 19 62 -8 8 -14 7 -21 -2z"/>
 <path d="M6080 4400 c-11 -21 -5 -44 9 -35 13 7 20 44 11 50 -5 3 -14 -4 -20 -15z"/>
 <path d="M3831 4324 c-28 -36 -17 -49 19 -22 23 16 27 25 19 35 -15 17 -14 17 -38 -13z"/>
 <path d="M6156 4261 c-4 -5 -2 -12 4 -16 5 -3 10 -3 10 1 0 3 6 1 14 -5 10 -8 16 -9 21 -1 3 5 4 11 1 11 -3 1 -9 2 -13 3 -5 1 -13 5 -20 9 -6 4 -14 3 -17 -2z"/>
 <path d="M3788 4253 c-8 -14 -3 -38 7 -41 12 -3 16 36 4 43 -4 3 -9 2 -11 -2z"/>
 <path d="M3736 4171 c-9 -10 -14 -26 -11 -35 17 -55 15 -53 31 -32 15 22 19 72 5 80 -4 3 -16 -3 -25 -13z"/>
 <path d="M6235 4180 c-11 -17 5 -32 21 -19 7 6 11 15 8 20 -7 12 -21 11 -29 -1z"/>
 <path d="M6262 4137 c-23 -25 -30 -40 -21 -47 3 -3 18 9 33 27 30 36 20 54 -12 20z"/>
 <path d="M6314 4037 c-8 -23 3 -50 19 -44 13 4 11 36 -4 51 -5 6 -11 3 -15 -7z"/>
 <path d="M3617 3893 c-11 -19 -1 -58 16 -61 25 -5 40 39 19 56 -18 14 -29 15 -35 5z"/>
 <path d="M6405 3780 c-4 -6 -3 -16 3 -22 6 -6 12 -6 17 2 4 6 3 16 -3 22 -6 6 -12 6 -17 -2z"/>
 <path d="M3579 3726 c-13 -28 -5 -60 14 -53 13 4 18 65 5 73 -4 3 -13 -6 -19 -20z"/>
 <path d="M6395 3728 c-11 -27 -1 -53 19 -53 27 0 29 16 6 45 -16 22 -20 23 -25 8z"/>
 <path d="M3554 3546 c-4 -10 -2 -22 4 -28 8 -8 13 -7 18 6 4 10 2 22 -4 28 -8 8 -13 7 -18 -6z"/>
 <path d="M3556 3403 c-13 -13 -5 -69 14 -93 17 -23 19 -23 26 -7 4 10 2 23 -5 30 -6 6 -11 23 -11 38 0 28 -12 44 -24 32z"/>
 <path d="M6428 3354 c-9 -16 -3 -94 7 -92 6 2 10 12 11 23 0 11 3 25 7 31 3 6 0 19 -7 29 -7 10 -15 14 -18 9z"/>
 <path d="M6419 3236 c-3 -13 -6 -22 -14 -39 -4 -11 -3 -23 3 -29 8 -8 13 -7 18 6 4 9 4 20 0 23 -3 3 -1 12 5 19 7 8 7 14 -1 19 -5 3 -11 4 -11 1z"/>
 <path d="M3635 3000 c-9 -14 4 -32 17 -24 6 4 8 2 5 -3 -4 -6 0 -16 7 -22 8 -7 16 -8 18 -4 8 15 3 48 -7 48 -5 0 -15 4 -22 8 -6 4 -14 3 -18 -3z"/>
 <path d="M6329 2984 c-14 -34 -19 -103 -8 -110 11 -6 31 33 28 54 -2 9 1 28 5 41 13 37 -11 51 -25 15z"/>
 <path d="M3675 2881 c-7 -12 12 -24 25 -16 11 7 4 25 -10 25 -5 0 -11 -4 -15 -9z"/>
 <path d="M6270 2820 c-11 -21 -6 -40 10 -40 5 0 14 9 19 19 8 14 7 22 -4 31 -11 9 -16 7 -25 -10z"/>
 <path d="M3734 2816 c-4 -10 -2 -22 4 -28 8 -8 13 -7 18 6 4 10 2 22 -4 28 -8 8 -13 7 -18 -6z"/>
 <path d="M6240 2761 c-14 -26 -4 -47 15 -31 13 11 14 34 3 46 -4 3 -11 -4 -18 -15z"/>
 <path d="M3745 2760 c-4 -6 -3 -16 3 -22 6 -6 12 -6 17 2 4 6 3 16 -3 22 -6 6 -12 6 -17 -2z"/>
 <path d="M3776 2722 c-8 -14 1 -47 12 -45 6 2 9 -3 6 -11 -3 -7 7 -21 21 -30 22 -14 26 -15 31 -2 8 20 -14 58 -28 50 -7 -4 -8 -2 -4 5 4 6 2 18 -4 26 -14 17 -26 19 -34 7z"/>
 <path d="M6166 2721 c-7 -10 0 -15 17 -12 4 0 6 -5 5 -11 -2 -7 3 -12 10 -10 8 1 11 -2 7 -8 -5 -8 -13 -6 -26 6 -10 9 -19 15 -20 13 -10 -53 5 -85 26 -56 7 9 14 14 17 12 3 -3 10 1 16 8 9 11 5 20 -17 41 -18 17 -31 24 -35 17z"/>
 <path d="M3885 2561 c-2 -5 2 -16 9 -26 13 -18 14 -18 25 3 6 12 10 22 9 23 -23 6 -39 6 -43 0z"/>
 <path d="M6106 2562 c-3 -6 1 -15 8 -21 8 -7 17 -8 20 -3 3 6 -1 15 -8 21 -8 7 -17 8 -20 3z"/>
 <path d="M3927 2523 c-11 -11 -8 -27 13 -53 l19 -25 9 25 c15 39 -16 79 -41 53z"/>
 <path d="M6003 2478 c-9 -17 -11 -48 -3 -53 4 -2 20 9 35 25 16 17 27 30 24 31 -2 0 -14 2 -26 5 -12 2 -25 -2 -30 -8z"/>
 <path d="M5955 2400 c-4 -6 -14 -9 -23 -8 -11 2 -17 -5 -18 -24 -2 -15 1 -30 6 -33 12 -7 32 30 22 40 -4 5 -2 5 4 2 15 -8 39 19 25 27 -5 4 -13 2 -16 -4z"/>
 <path d="M4060 2374 c-9 -10 -10 -18 -3 -25 8 -8 14 -5 22 9 13 25 -2 38 -19 16z"/>
 <path d="M4105 2340 c-4 -6 -3 -16 3 -22 6 -6 12 -6 17 2 4 6 3 16 -3 22 -6 6 -12 6 -17 -2z"/>
 <path d="M5841 2316 c-7 -8 -8 -17 -3 -20 6 -3 15 1 21 8 7 8 8 17 3 20 -6 3 -15 -1 -21 -8z"/>
 <path d="M4145 2306 c-11 -8 -14 -16 -8 -19 6 -4 18 0 28 7 11 8 14 16 8 19 -6 4 -18 0 -28 -7z"/>
 <path d="M4240 2235 c-10 -12 -5 -17 26 -30 26 -11 41 -12 48 -5 8 8 4 12 -11 16 -12 3 -24 12 -27 20 -7 18 -20 18 -36 -1z"/>
 <path d="M4325 2240 c-4 -6 -3 -16 3 -22 6 -6 12 -6 17 2 4 6 3 16 -3 22 -6 6 -12 6 -17 -2z"/>
 <path d="M5650 2205 c-12 -14 -6 -35 10 -35 5 0 21 5 37 11 27 10 27 11 9 25 -25 18 -40 18 -56 -1z"/>
 <path d="M5528 2160 c-19 -12 -17 -47 3 -41 8 2 28 5 46 7 46 3 60 14 38 31 -22 15 -63 17 -87 3z"/>
 <path d="M4416 2151 c-6 -10 39 -51 56 -51 14 0 22 30 10 42 -7 7 -17 6 -32 -2 -13 -7 -20 -8 -16 -2 3 6 2 13 -3 16 -5 4 -12 2 -15 -3z"/>
 <path d="M4611 2076 c-18 -22 -2 -27 48 -17 6 2 -21 31 -29 31 -4 0 -13 -6 -19 -14z"/>
 <path d="M5395 2080 c-8 -13 20 -24 41 -16 20 8 9 26 -16 26 -10 0 -22 -5 -25 -10z"/>
 <path d="M4707 2073 c-9 -8 12 -45 23 -38 5 3 11 1 15 -5 8 -14 52 -13 61 2 9 15 -25 40 -51 36 -11 -1 -25 1 -31 5 -6 3 -14 4 -17 0z"/>
 <path d="M5225 2071 c-3 -5 -2 -12 3 -15 12 -7 62 -1 65 9 3 11 -61 17 -68 6z"/>
 <path d="M4912 2041 c-18 -4 -34 -10 -35 -16 -3 -13 73 -19 85 -7 15 15 -14 28 -50 23z"/>
 </g>
<g id="layer3" fill="#e0fdff" stroke="none">
 <path d="M2025 8053 c-32 -8 -45 -23 -45 -54 0 -37 18 -47 29 -16 5 13 17 27 26 31 9 3 1350 6 2980 6 2759 0 2963 -1 2969 -17 9 -24 29 -2 24 28 l-3 24 -2980 1 c-1639 1 -2989 -1 -3000 -3z"/>
 <path d="M1983 7905 c-10 -28 5 -222 27 -345 104 -581 418 -1107 898 -1504 148 -122 154 -127 332 -242 128 -83 384 -214 515 -264 33 -12 69 -26 80 -31 11 -4 58 -20 105 -35 47 -14 105 -33 129 -41 24 -7 46 -11 49 -8 3 2 10 1 16 -4 17 -13 141 -40 306 -66 19 -3 47 -8 62 -11 27 -5 47 9 28 21 -6 4 -28 8 -48 10 -20 2 -44 5 -52 8 -8 3 -44 11 -80 18 -36 6 -73 16 -84 21 -10 6 -44 11 -75 13 -61 3 -107 17 -113 35 -2 7 -22 14 -43 16 -59 5 -82 11 -107 28 -12 9 -34 16 -48 16 -14 0 -30 4 -35 9 -6 4 -45 21 -87 36 -71 25 -77 30 -72 50 8 31 -8 38 -45 19 -31 -15 -34 -15 -54 4 -12 11 -39 23 -59 27 -20 4 -39 13 -42 21 -3 8 -14 14 -25 14 -11 0 -23 5 -26 10 -4 6 -26 20 -51 31 -24 12 -44 25 -44 30 0 5 -15 16 -32 24 -71 34 -101 52 -109 68 -5 8 -23 18 -39 22 -16 4 -39 20 -51 36 -11 16 -27 29 -36 29 -16 0 -44 20 -115 82 -24 21 -49 38 -55 38 -7 0 -13 4 -13 9 0 4 -36 40 -80 79 -80 71 -214 217 -280 306 -19 26 -45 60 -57 75 -13 16 -23 36 -23 45 0 9 -7 19 -16 23 -8 3 -20 15 -25 27 -5 11 -18 35 -29 51 -11 17 -24 39 -29 50 -6 11 -19 34 -30 50 -12 17 -21 37 -21 46 0 9 -11 24 -25 33 -14 9 -25 25 -25 36 0 10 -4 22 -10 25 -5 3 -10 13 -10 22 0 9 -7 24 -16 34 -9 10 -17 31 -18 48 -1 16 -10 38 -20 50 -10 11 -19 34 -21 51 -1 17 -5 33 -9 37 -3 3 -6 13 -6 21 0 8 -11 38 -24 66 -34 72 -46 116 -46 164 0 22 -5 44 -10 47 -6 4 -8 10 -5 15 3 5 1 11 -4 14 -5 3 -9 23 -9 43 0 21 -5 58 -11 83 -5 25 -13 96 -17 158 -7 108 -17 143 -31 107z"/>
 <path d="M7985 7828 c-9 -23 -2 -83 10 -83 14 0 19 75 6 88 -7 7 -12 5 -16 -5z"/>
 <path d="M7966 7739 c-2 -8 -7 -56 -10 -107 -2 -52 -13 -117 -24 -150 -11 -31 -23 -78 -26 -105 -3 -26 -15 -66 -28 -90 -12 -23 -21 -56 -19 -73 1 -18 -5 -37 -14 -44 -8 -7 -15 -20 -15 -29 -1 -20 -28 -58 -38 -51 -4 3 -7 -11 -7 -32 0 -20 -3 -40 -7 -44 -5 -4 -8 -15 -8 -25 0 -10 -11 -31 -25 -47 -13 -16 -21 -32 -17 -36 4 -4 -1 -12 -11 -17 -9 -6 -17 -17 -17 -25 0 -22 -47 -92 -70 -104 -11 -6 -18 -15 -15 -20 10 -16 -48 -115 -112 -190 -18 -20 -33 -44 -33 -52 0 -8 -11 -20 -24 -26 -14 -6 -26 -22 -30 -43 -3 -18 -9 -29 -13 -26 -9 9 -53 -33 -53 -50 0 -7 -17 -21 -38 -32 -26 -13 -38 -26 -39 -42 -1 -13 -7 -25 -13 -27 -22 -8 -70 -54 -70 -68 0 -8 -9 -14 -20 -14 -20 0 -115 -79 -106 -88 6 -6 -38 -42 -89 -72 -22 -14 -58 -41 -80 -62 -21 -21 -45 -38 -52 -38 -8 0 -29 -16 -48 -35 -19 -19 -41 -32 -48 -29 -7 2 -22 -4 -32 -16 -10 -11 -26 -20 -35 -20 -9 0 -25 -9 -34 -19 -10 -11 -38 -29 -62 -40 -24 -12 -44 -25 -44 -30 0 -35 53 -10 250 117 337 218 622 500 839 831 84 128 212 391 260 536 62 182 115 434 107 503 -3 30 -24 51 -30 31z"/>
 <path d="M2054 7675 c-9 -23 14 -71 27 -58 14 14 7 65 -8 71 -7 2 -16 -4 -19 -13z"/>
 <path d="M2225 7040 c-4 -6 -3 -16 3 -22 6 -6 12 -6 17 2 4 6 3 16 -3 22 -6 6 -12 6 -17 -2z"/>
 <path d="M7360 6431 c-7 -13 -7 -22 0 -26 13 -8 30 3 30 20 0 23 -18 27 -30 6z"/>
 <path d="M2674 6359 c-10 -17 13 -36 27 -22 12 12 4 33 -11 33 -5 0 -12 -5 -16 -11z"/>
 <path d="M2825 6220 c-4 -6 -3 -16 3 -22 6 -6 12 -6 17 2 4 6 3 16 -3 22 -6 6 -12 6 -17 -2z"/>
 <path d="M2985 6079 c-11 -16 5 -31 20 -19 7 6 17 9 23 8 5 -2 12 1 14 6 4 12 -50 17 -57 5z"/>
 <path d="M6955 6080 c-10 -17 12 -37 25 -24 8 8 6 15 -4 23 -10 9 -16 9 -21 1z"/>
 <path d="M6875 6031 c-7 -12 12 -24 25 -16 11 7 4 25 -10 25 -5 0 -11 -4 -15 -9z"/>
 <path d="M3194 5919 c-3 -6 -1 -16 4 -21 13 -13 45 8 36 23 -7 12 -31 11 -40 -2z"/>
 <path d="M6364 5719 c-10 -17 13 -36 27 -22 12 12 4 33 -11 33 -5 0 -12 -5 -16 -11z"/>
 <path d="M6486 5711 c-7 -10 -86 -53 -86 -46 0 5 -34 -13 -87 -48 -24 -15 -54 -27 -67 -27 -14 0 -37 -5 -53 -12 -15 -6 -32 -12 -36 -12 -4 -1 -11 -6 -15 -11 -7 -11 -68 -32 -114 -39 -14 -2 -35 -9 -47 -15 -11 -6 -35 -13 -53 -14 -19 -2 -32 -8 -30 -15 1 -7 -8 -12 -21 -12 -13 0 -46 -7 -73 -15 -28 -8 -72 -16 -98 -16 -26 -1 -49 -6 -52 -11 -3 -4 -18 -8 -34 -8 -16 0 -67 -9 -112 -19 -122 -28 -201 -34 -528 -35 -191 -1 -294 -5 -293 -11 1 -5 24 -13 50 -17 73 -10 458 -8 543 3 41 5 88 9 104 9 45 -1 267 38 402 70 224 53 492 149 674 240 68 34 80 43 70 56 -14 16 -36 19 -44 5z"/>
 <path d="M3965 5601 c-7 -12 12 -24 25 -16 11 7 4 25 -10 25 -5 0 -11 -4 -15 -9z"/>
 <path d="M6081 5596 c-8 -10 -9 -16 -2 -21 14 -8 53 13 46 26 -9 13 -31 11 -44 -5z"/>
 <path d="M3845 5580 c-10 -17 12 -37 25 -24 8 8 6 15 -4 23 -10 9 -16 9 -21 1z"/>
 <path d="M4595 5361 c-7 -12 12 -24 25 -16 11 7 4 25 -10 25 -5 0 -11 -4 -15 -9z"/>
 <path d="M4820 4930 c-102 -14 -208 -40 -300 -72 -85 -30 -237 -103 -275 -131 -18 -14 -18 -16 -3 -22 9 -4 29 0 45 9 15 8 39 20 53 25 14 6 32 15 40 21 36 24 98 52 135 61 61 15 89 25 119 41 10 5 39 12 65 14 25 3 62 9 81 14 57 14 328 24 342 12 7 -6 42 -13 78 -16 96 -7 149 -17 156 -27 3 -5 19 -9 37 -9 17 0 54 -9 82 -19 27 -11 69 -25 92 -31 37 -11 41 -16 40 -41 -1 -16 2 -28 8 -26 5 1 9 8 7 15 -2 10 1 11 17 3 11 -6 26 -8 35 -5 8 3 19 -2 24 -13 6 -10 26 -24 46 -31 19 -7 59 -35 88 -62 29 -27 68 -57 87 -66 19 -9 52 -36 74 -60 22 -24 46 -44 53 -44 7 0 25 -20 40 -45 14 -25 29 -43 33 -40 5 2 14 -8 22 -23 16 -31 41 -68 87 -131 17 -24 32 -50 32 -57 0 -7 7 -17 17 -22 9 -6 14 -16 10 -26 -4 -10 1 -20 13 -26 11 -6 20 -18 20 -28 0 -9 7 -30 15 -46 8 -15 15 -37 15 -48 0 -11 8 -32 18 -46 10 -15 24 -54 31 -87 7 -33 18 -73 23 -90 5 -16 12 -76 15 -132 5 -80 10 -106 23 -118 10 -9 20 -13 23 -8 7 13 -11 182 -28 263 -37 170 -126 384 -216 518 -217 319 -563 553 -937 632 -111 24 -376 35 -482 20z"/>
 <path d="M4765 4851 c-7 -12 12 -24 25 -16 11 7 4 25 -10 25 -5 0 -11 -4 -15 -9z"/>
 <path d="M5275 4810 c-8 -13 20 -24 41 -16 20 8 9 26 -16 26 -10 0 -22 -5 -25 -10z"/>
 <path d="M4131 4650 c-297 -224 -492 -526 -577 -895 -16 -65 -19 -120 -19 -295 0 -198 2 -224 27 -327 136 -571 579 -1003 1156 -1125 90 -19 137 -22 292 -22 189 1 228 6 401 52 83 22 168 56 272 108 59 30 89 49 203 125 99 66 292 276 379 414 63 99 174 359 160 373 -2 3 -1 10 4 16 23 27 60 278 47 312 -11 30 -26 2 -31 -61 -9 -111 -17 -170 -25 -180 -12 -17 -19 -55 -9 -60 4 -3 -1 -20 -11 -38 -11 -18 -20 -42 -20 -55 0 -12 -5 -21 -11 -20 -6 2 -13 -4 -14 -12 -14 -75 -77 -197 -147 -286 -26 -34 -48 -69 -48 -77 0 -8 -15 -28 -32 -43 -18 -15 -40 -39 -49 -53 -21 -33 -88 -106 -98 -106 -4 0 -22 -15 -40 -32 -18 -18 -37 -33 -42 -33 -5 0 -30 -19 -54 -41 -25 -23 -45 -38 -45 -33 0 5 -6 2 -13 -6 -7 -8 -28 -23 -47 -33 -19 -10 -53 -29 -75 -42 -51 -32 -105 -51 -126 -47 -4 1 -15 -8 -24 -18 -10 -11 -28 -20 -41 -20 -13 0 -26 -4 -29 -10 -3 -5 -20 -10 -37 -10 -16 0 -61 -10 -99 -21 -39 -12 -73 -19 -76 -15 -3 3 -13 0 -21 -7 -20 -16 -344 -14 -427 3 -33 7 -78 15 -100 20 -22 4 -58 14 -80 24 -22 9 -54 18 -70 19 -17 2 -39 8 -50 14 -11 5 -43 22 -71 36 -29 15 -58 27 -65 27 -6 0 -28 12 -48 27 -20 16 -39 27 -43 26 -4 -2 -15 8 -24 22 -12 19 -22 24 -37 19 -13 -4 -17 -2 -13 5 4 6 -3 16 -16 21 -62 28 -108 65 -108 87 0 7 3 12 8 11 4 -2 8 2 9 7 2 6 -13 10 -33 10 -27 0 -40 7 -56 28 -11 15 -26 27 -34 27 -8 0 -14 9 -14 20 0 21 -61 90 -80 90 -5 0 -10 11 -10 25 0 18 -7 28 -26 36 -15 5 -24 12 -21 16 4 3 -6 24 -22 47 -24 35 -42 77 -57 134 -2 7 -8 10 -14 7 -6 -3 -13 2 -16 12 -3 10 -10 26 -15 35 -5 10 -9 25 -9 33 0 9 -9 28 -20 43 -11 15 -21 36 -23 47 -2 11 -6 27 -9 35 -3 8 -11 47 -18 85 -7 39 -17 76 -23 83 -6 8 -10 94 -11 220 -1 220 4 285 23 319 6 12 13 45 16 73 3 28 14 68 25 90 11 21 20 46 20 54 0 9 9 31 20 51 11 20 20 42 20 49 0 7 9 21 20 31 11 10 20 28 20 40 0 13 7 28 15 35 8 7 15 18 15 25 0 15 51 83 97 130 18 18 35 44 39 59 3 14 10 23 15 20 5 -3 16 11 25 30 10 20 30 40 46 47 16 6 33 20 39 30 5 10 15 18 21 16 6 -1 22 14 35 33 13 19 53 55 89 78 35 24 64 48 64 52 0 25 -26 14 -99 -40z"/>
 <path d="M5664 4699 c-10 -17 13 -36 27 -22 12 12 4 33 -11 33 -5 0 -12 -5 -16 -11z"/>
 <path d="M5915 4501 c-3 -6 3 -15 14 -21 12 -6 22 -6 26 -1 3 6 -3 15 -14 21 -12 6 -22 6 -26 1z"/>
 <path d="M6261 4096 c-7 -8 -8 -17 -3 -20 6 -3 15 1 21 8 7 8 8 17 3 20 -6 3 -15 -1 -21 -8z"/>
 <path d="M6289 4001 c-19 -15 -22 -24 -14 -36 15 -24 27 -20 41 14 16 38 4 47 -27 22z"/>
 <path d="M3574 3396 c-4 -10 -2 -22 4 -28 8 -8 13 -7 18 6 4 10 2 22 -4 28 -8 8 -13 7 -18 -6z"/>
 <path d="M3625 3191 c-9 -16 15 -55 27 -43 12 12 7 44 -9 49 -6 2 -14 -1 -18 -6z"/>
 <path d="M6320 3031 c-6 -12 -6 -22 -1 -26 6 -3 15 3 21 14 6 12 6 22 1 26 -6 3 -15 -3 -21 -14z"/>
 <path d="M6264 2879 c-10 -17 13 -36 27 -22 12 12 4 33 -11 33 -5 0 -12 -5 -16 -11z"/>
 <path d="M4443 2174 c-3 -8 -1 -20 4 -25 12 -12 48 14 39 29 -10 17 -36 15 -43 -4z"/>
 </g>
<g id="layer4" fill="#fffffe" stroke="none">
 <path d="M2024 8030 c-40 -16 -45 -60 -29 -235 8 -88 19 -175 24 -194 6 -19 8 -44 5 -57 -3 -12 -1 -25 5 -28 5 -4 8 -13 5 -20 -3 -8 -1 -17 5 -21 6 -3 11 -22 11 -42 0 -42 13 -87 45 -158 12 -27 28 -78 35 -113 7 -36 20 -66 29 -71 8 -5 16 -23 17 -41 2 -32 30 -73 45 -64 12 7 11 -10 -1 -22 -13 -13 14 -70 41 -87 10 -6 19 -19 19 -27 0 -8 11 -32 25 -52 14 -20 25 -44 25 -52 0 -8 6 -19 13 -23 13 -9 32 -37 46 -69 6 -12 19 -28 30 -36 12 -8 18 -18 15 -21 -7 -6 22 -49 80 -119 17 -20 41 -51 54 -68 13 -16 28 -27 34 -24 6 4 8 2 5 -3 -14 -23 223 -259 249 -249 9 3 12 1 9 -5 -9 -13 22 -59 38 -59 8 0 24 -12 38 -26 35 -38 114 -94 132 -94 9 0 19 -9 22 -21 8 -24 67 -52 110 -51 28 0 29 0 7 -9 -28 -11 -22 -24 15 -34 14 -3 51 -23 81 -43 57 -40 118 -77 142 -88 8 -4 23 -14 32 -21 9 -8 21 -12 27 -9 5 4 12 2 16 -4 3 -5 13 -10 21 -10 8 0 23 -9 35 -21 13 -13 27 -18 41 -13 13 4 18 2 14 -4 -6 -10 17 -29 37 -31 36 -4 114 -32 169 -62 10 -5 28 -9 41 -9 12 0 33 -7 45 -16 13 -9 35 -18 50 -19 50 -7 87 -18 102 -31 18 -15 107 -37 120 -29 5 3 28 -1 52 -9 24 -8 70 -20 103 -26 33 -7 67 -15 75 -18 8 -3 21 -4 27 -3 7 1 30 -3 52 -9 68 -18 149 -22 456 -23 332 0 421 5 543 34 45 10 98 19 117 19 19 0 36 4 39 8 2 4 22 9 43 10 53 3 172 32 206 49 15 8 34 12 42 10 7 -3 20 2 29 12 9 10 30 18 46 19 38 1 97 21 133 45 15 11 47 21 70 24 24 3 65 21 94 40 28 19 60 36 71 38 22 4 58 23 84 44 10 7 25 11 34 7 10 -4 28 4 46 19 17 15 44 29 60 32 18 3 34 15 40 29 6 13 15 21 20 18 5 -3 16 0 25 8 9 7 18 11 20 9 3 -2 25 12 51 30 49 36 58 43 145 103 31 21 54 42 52 46 -3 5 9 13 26 19 33 11 121 90 114 101 -7 11 19 30 51 39 16 4 35 20 44 37 9 16 29 35 44 42 15 8 31 24 36 37 5 12 22 32 39 44 17 12 36 34 43 49 7 15 20 27 28 27 8 0 22 14 30 30 9 17 30 45 48 64 18 19 30 36 28 39 -3 3 7 20 22 38 43 51 65 85 95 144 15 30 36 64 46 75 29 33 52 75 46 84 -2 5 2 12 10 15 9 3 20 16 25 28 6 13 14 30 20 38 20 32 39 86 37 105 -1 11 4 20 13 20 8 0 14 9 13 19 0 10 10 38 23 62 13 24 23 56 22 71 -1 16 8 47 20 70 13 24 25 64 28 90 3 27 15 74 26 106 10 31 17 66 13 76 -3 11 -1 22 5 26 5 3 10 28 10 55 0 27 5 52 11 55 6 4 8 13 5 20 -2 7 -2 15 1 18 11 11 14 253 4 280 l-11 27 -2972 -1 c-1644 0 -2983 -4 -2994 -9z"/>
 <path d="M4860 4919 c-36 -3 -72 -8 -80 -12 -8 -3 -41 -8 -73 -10 -32 -3 -66 -12 -75 -20 -9 -8 -22 -12 -29 -10 -6 2 -24 -2 -40 -10 -15 -8 -46 -18 -68 -22 -22 -4 -58 -19 -80 -34 -51 -34 -148 -81 -169 -81 -8 0 -21 -8 -28 -18 -7 -9 -32 -30 -56 -45 -24 -16 -71 -55 -105 -89 -34 -33 -74 -66 -89 -74 -16 -8 -28 -19 -28 -23 0 -5 -13 -22 -30 -38 -16 -15 -30 -33 -30 -40 0 -6 -8 -19 -17 -29 -32 -31 -123 -157 -123 -170 0 -6 -7 -17 -15 -24 -8 -7 -15 -21 -15 -31 0 -11 -9 -28 -20 -39 -11 -11 -20 -27 -20 -35 0 -8 -9 -30 -20 -50 -11 -20 -20 -42 -20 -51 0 -8 -9 -33 -20 -54 -11 -22 -22 -62 -25 -90 -3 -28 -10 -61 -16 -73 -19 -34 -24 -99 -23 -319 1 -126 5 -212 11 -220 6 -7 16 -44 23 -83 7 -38 15 -77 18 -85 3 -8 7 -24 9 -35 2 -11 12 -32 23 -47 11 -15 20 -34 20 -43 0 -16 5 -28 33 -80 9 -16 34 -66 57 -109 44 -86 68 -119 81 -110 5 3 9 -4 9 -16 0 -30 84 -112 99 -97 8 8 15 7 24 -2 10 -10 8 -12 -8 -9 -28 4 -27 -34 1 -46 12 -6 29 -23 39 -38 9 -16 21 -26 26 -23 5 4 17 1 26 -4 10 -6 14 -11 9 -11 -14 0 55 -70 69 -70 6 0 22 -12 36 -26 13 -14 38 -32 54 -40 17 -8 50 -27 75 -44 25 -16 52 -32 60 -35 8 -3 35 -16 60 -28 24 -12 50 -22 56 -22 6 0 19 -6 28 -14 9 -8 27 -15 40 -16 46 -5 91 -17 104 -28 7 -6 32 -14 55 -18 23 -4 69 -12 102 -19 83 -17 407 -19 427 -3 8 7 18 10 21 7 3 -4 37 3 76 15 38 11 83 21 99 21 17 0 34 5 37 10 3 6 17 10 31 10 13 0 32 8 43 19 17 17 67 36 85 32 4 -1 15 4 23 11 16 13 79 48 130 73 18 8 47 28 65 43 18 15 57 43 86 61 28 18 52 37 52 42 0 13 42 49 51 43 5 -3 14 6 20 19 6 14 22 30 35 36 13 6 23 14 22 18 -4 14 23 54 32 48 11 -7 60 64 60 87 0 9 13 26 30 38 16 12 33 32 36 46 3 13 10 24 14 24 6 0 56 95 81 155 21 50 39 91 47 105 17 28 34 85 38 124 2 22 8 44 13 50 9 11 17 65 26 179 3 32 9 66 15 77 14 27 12 96 -4 109 -9 7 -15 45 -19 114 -3 56 -10 116 -15 132 -5 17 -16 57 -23 90 -7 33 -21 72 -31 87 -10 14 -18 42 -18 61 0 19 -7 40 -15 47 -8 7 -15 23 -15 37 0 13 -7 26 -15 29 -8 4 -15 12 -15 20 0 14 -52 96 -83 131 -11 13 -21 33 -22 45 -1 13 -7 22 -13 21 -6 -2 -19 13 -28 32 -9 20 -24 41 -33 48 -9 7 -29 29 -44 49 -15 21 -32 37 -37 35 -5 -1 -32 23 -60 53 -27 30 -58 55 -68 55 -9 0 -17 7 -17 15 0 8 -5 15 -12 15 -6 0 -21 12 -32 27 -12 15 -28 25 -35 22 -7 -3 -16 2 -19 10 -3 9 -23 22 -44 31 -21 9 -48 25 -60 37 -12 11 -26 17 -31 14 -14 -8 -43 4 -36 15 6 10 -77 49 -102 49 -9 0 -25 5 -37 12 -26 14 -40 18 -87 25 -19 2 -44 8 -55 13 -28 12 -79 21 -155 27 -36 3 -70 9 -77 15 -12 10 -137 8 -263 -3z"/>
 </g>
<g id="layer5" fill="#2294d2" stroke="none">
 <path d="M0 5000 l0 -5000 5000 0 5000 0 0 5000 0 5000 -5000 0 -5000 0 0 -5000z m7990 2906 c0 -487 -187 -1003 -519 -1431 -429 -552 -1109 -945 -1877 -1085 -559 -102 -1253 -43 -1759 150 -11 4 -47 18 -80 30 -131 50 -387 181 -515 264 -178 115 -184 120 -332 242 -551 456 -885 1111 -905 1776 l-6 176 24 5 c13 2 1362 5 2997 6 l2972 1 0 -134z m-2688 -3016 c318 -67 617 -244 817 -484 89 -107 121 -155 185 -280 205 -399 215 -858 28 -1274 -58 -129 -115 -218 -210 -332 -65 -78 -184 -194 -238 -230 -219 -150 -357 -210 -619 -268 -49 -11 -126 -15 -255 -16 -155 0 -202 3 -292 22 -244 52 -448 149 -644 306 -236 189 -417 483 -492 799 -25 103 -27 129 -27 327 0 175 3 230 19 295 32 137 66 236 122 350 217 439 632 736 1124 805 106 15 371 4 482 -20z"/>
 </g>

</svg>